<svg width="232" height="79" viewBox="0 0 232 79" fill="none" xmlns="http://www.w3.org/2000/svg">
<g clip-path="url(#clip0)">
<path d="M39.7867 3.86854C39.9467 4.36769 39.36 4.67966 39.0578 4.89359C38.5156 4.56379 37.9734 3.85071 37.2889 4.3053C37.0578 4.39443 37.2178 4.6351 37.1734 4.80445C37.7867 5.41057 38.9156 5.52644 39.0934 6.39996C39.2623 7.21109 38.9778 7.9509 38.2578 8.30744C36.8445 9.06509 36.08 6.97934 34.6045 7.8796C34.7556 7.36262 35.1734 6.94368 35.4489 6.48018C36.3823 6.61389 36.64 7.71024 37.7245 7.43392C37.9912 7.14869 38.4623 6.79215 38.08 6.41779C37.3423 5.82059 35.8312 5.78493 35.9112 4.45683C35.6889 3.93093 36.2223 3.69027 36.3823 3.31591C37.5823 2.93263 38.5778 3.87745 39.7867 3.86854Z" fill="black"/>
<path d="M26.4799 3.66338C27.191 3.4138 28.1599 4.10905 28.8533 3.48511C29.0755 4.03774 28.5244 4.28732 28.5066 4.75082C27.8666 4.50124 27.031 3.94861 26.3733 4.54581C26.1688 5.00931 26.7377 5.21432 27.0133 5.28563C28.0088 5.30345 29.1466 5.50846 29.5555 6.48894C29.8133 7.24659 29.2533 7.79922 28.711 8.13793C27.6888 8.85101 26.6133 7.30007 25.831 8.58361L25.5822 8.59252C25.4666 7.96858 25.7244 7.49616 25.7955 6.95244C26.6133 7.08615 27.5466 8.08445 28.311 7.14854C28.3733 6.78309 28.3466 6.70287 28.1688 6.39981C27.2266 5.68673 25.2533 6.50677 25.1199 4.83104C24.9422 4.30515 25.3066 3.8773 25.7155 3.69012C26.0088 3.7436 26.3199 3.52076 26.4799 3.66338Z" fill="black"/>
<path d="M33.5467 5.64233C32.8001 5.63342 32.9245 6.82782 32.0623 6.56042C32.0267 5.8206 30.4089 5.42841 31.3956 4.93817L32.3734 3.78833C32.8978 4.22509 33.4489 4.8936 33.5467 5.64233Z" fill="black"/>
<path d="M45.4754 6.13255C45.751 6.38212 46.231 6.58713 45.8754 7.00606L45.2621 7.64783C44.7554 7.425 44.6399 6.47126 43.8577 6.67627C43.2354 7.71023 42.3732 8.80658 42.8088 10.099C41.9021 10.2417 41.3599 9.43944 40.5332 9.39487C40.551 8.7531 41.5643 9.11855 41.6354 8.36091C41.9821 7.52305 42.7288 6.68518 42.5865 5.82057C42.1065 5.28577 41.3954 5.32142 40.7021 5.36599C40.5332 4.90249 40.9865 4.67074 41.1821 4.34985C42.7377 4.59943 44.0088 5.63339 45.4754 6.13255Z" fill="black"/>
<path d="M18.2844 7.74576L18.2933 8.12013C17.68 7.9686 17.1911 8.37862 16.9333 8.77972C17.2711 9.81368 17.9733 11.0259 19.12 11.3646L19.1289 11.6231C18.4711 11.9707 17.92 12.5858 17.1466 12.6749C17.5911 11.3557 16.5689 10.3752 15.8222 9.4304C14.7822 9.08278 14.7022 11.4627 13.9466 9.72455L13.9377 9.34127L17.2711 7.13073C17.8755 6.95246 18.0177 7.37139 18.2844 7.74576Z" fill="black"/>
<path d="M21.4312 7.67446L21.3068 7.79925C21.0401 7.64772 21.0134 7.38923 21.1645 7.17531C21.2534 7.2377 21.5201 7.43379 21.4312 7.67446ZM24.5957 9.10953C24.1245 8.64603 23.2445 8.10231 22.9245 7.51402C22.1601 6.75637 21.3245 5.37479 20.249 5.42827C20.0801 6.70289 20.1157 8.19144 20.3379 9.44824C20.2668 9.92956 20.0179 10.3396 19.9912 10.8477C20.5868 10.8031 21.1201 10.607 21.609 10.3039C21.6979 9.93848 21.2623 9.81369 21.0845 9.56411C21.0845 9.29671 21.0401 9.01148 21.1912 8.80647C21.6534 8.77081 21.8757 8.20035 22.4445 8.39645C22.8979 8.69059 23.0223 9.12735 22.969 9.64433C23.5112 9.46606 24.1423 9.49281 24.5957 9.10953Z" fill="black"/>
<path d="M48.2845 7.95976C47.0579 8.42326 46.329 9.74245 46.3468 11.026C46.5423 11.5251 47.0668 11.748 47.6179 11.6232C48.3734 10.7675 49.1201 9.9029 49.3068 8.81545L49.5556 8.55696C49.9823 9.01155 50.8534 9.15416 50.8356 9.91181C49.1379 10.1703 49.2445 12.6572 47.3779 12.6304C46.5068 12.5235 45.5557 12.06 45.209 11.1686C45.2979 9.58201 46.3379 8.36978 46.6223 6.85449C47.2712 6.97037 47.8668 7.523 48.2845 7.95976Z" fill="black"/>
<path d="M12.72 11.0169C13.1022 11.8191 13.6266 12.5589 14.2755 13.2453C14.5689 13.9405 15.2977 13.5038 15.6711 13.9673C15.2088 14.2792 14.8266 15.2775 14.0622 15.1349C13.7689 13.789 12.6044 12.7194 11.6 11.7924L11.3511 11.8013C11.4844 11.3021 12.4533 10.1166 12.72 11.0169Z" fill="black"/>
<path d="M10.9067 14.1992C10.0801 14.4042 9.36896 14.8677 9.18229 15.7502C9.58229 16.3741 10.009 15.6165 10.4356 15.5986C10.7823 15.0817 11.2712 14.9212 11.8045 14.8143C12.3023 14.9836 13.0045 14.8677 13.2001 15.5362C13.4134 16.383 12.889 17.0426 12.2401 17.4437C11.8134 17.5774 11.4401 17.8359 11.129 18.2281C11.0578 18.5846 11.0578 18.7629 11.1467 19.1105C11.0223 19.0749 10.969 19.1729 10.8978 19.2442C10.5423 18.8075 10.1956 18.3618 10.2401 17.7468C10.8267 17.4437 11.5023 16.8465 11.7067 16.2047C11.5201 15.7858 10.9601 15.9552 10.7023 16.0978C10.2045 16.7396 9.53784 17.007 8.71118 16.9C8.26673 16.7217 8.00896 16.2404 7.93785 15.7858C7.76007 15.0638 8.6134 14.6271 9.03118 14.2527C10.0801 14.3597 9.63562 12.2293 10.6401 13.3346L10.9067 14.1992Z" fill="black"/>
<path d="M53.0666 14.3864C52.791 14.832 52.3555 14.8944 51.9555 15.046C51.4666 15.0727 51.2443 14.4309 50.8088 14.315C50.9777 13.4772 51.8932 12.8176 52.5243 12.265C52.8799 12.2026 53.1643 12.6126 53.2888 12.88C53.591 13.3702 53.3332 13.9585 53.0666 14.3864ZM52.3555 10.6338L51.8577 10.6427C51.2355 11.8282 50.2932 13.5485 48.791 13.7357L50.7199 15.7056C51.4488 16.1512 52.5688 16.4008 53.3599 15.9016C54.2666 15.3847 54.6488 14.4398 54.6843 13.4772C54.3555 12.3273 53.3599 11.3647 52.3555 10.6338Z" fill="black"/>
<path d="M57.3777 16.3027C55.8932 16.7216 54.0799 17.4347 53.5466 19.0302L53.4221 19.1639C52.8977 18.6023 52.5154 17.9784 52.2488 17.301C53.9377 17.3634 55.2443 16.0709 56.0799 14.6982C56.7554 14.9122 56.9421 15.7679 57.3777 16.3027Z" fill="black"/>
<path d="M6.5601 21.7222C6.14232 21.6241 5.28899 21.535 5.53788 20.8665C6.01788 20.4297 6.34677 19.1819 7.14677 19.9484C7.31566 20.6793 6.97788 21.223 6.5601 21.7222ZM8.90677 20.1623C8.2401 20.1356 8.16899 19.3958 8.0001 18.9234C7.45788 18.754 7.04899 18.237 6.35566 18.4509C5.05788 19.3245 4.62232 20.9735 4.18677 22.3996C5.78677 22.4798 7.34232 22.9255 8.36454 24.1912C8.79121 23.6742 9.03121 23.0859 9.07566 22.4174C8.4801 22.3996 8.15121 22.6135 7.68899 22.1946C7.75121 21.6776 7.95566 21.2141 8.28454 20.7952C8.97788 20.4476 9.30677 21.3122 9.6801 21.5172C10.0801 21.0537 10.2845 20.51 10.5245 19.9841C10.0534 19.8414 9.53788 20.3049 8.90677 20.1623Z" fill="black"/>
<path d="M58.489 21.4459C57.9468 21.954 57.0846 22.1055 56.3646 21.8648C55.8312 21.5885 55.9023 21.0448 55.7157 20.6259C55.9112 19.9841 56.1334 19.3958 56.809 19.0927C57.5201 19.0125 58.2934 19.066 58.5868 19.8058C58.7468 20.2693 58.8801 21.0359 58.489 21.4459ZM58.9423 18.7897C57.9734 17.7201 56.0623 17.8983 55.1823 19.0036C54.7379 19.7791 54.4979 20.9467 54.9957 21.7757C55.5379 22.5957 56.3823 23.2375 57.4046 23.1038C58.2401 22.9612 59.1023 22.3907 59.5112 21.8024C59.6979 20.7863 59.689 19.5384 58.9423 18.7897Z" fill="black"/>
<path d="M4.86232 24.4052C3.87565 24.9489 3.57343 25.9828 3.41343 26.9544C3.71565 27.3109 4.06232 27.5516 4.55121 27.4357C5.09343 27.0168 4.53343 26.4553 4.64009 25.9204C5.10232 26.0363 5.61787 26.0185 6.02676 26.2681C6.3201 26.8564 4.86232 27.2307 5.92898 27.6586C6.84454 27.819 6.8801 26.7672 7.15565 26.2413C7.35121 25.6798 6.79121 25.4569 6.74676 24.9934C7.31565 24.8776 7.72454 25.1717 8.14232 25.4659C7.9201 26.6513 7.16454 27.6407 7.08454 28.8797C6.60454 29.2808 6.27565 28.4786 5.82232 28.4073C4.65787 28.5321 3.70676 27.721 2.56009 28.229C2.37343 28.024 2.35565 27.5694 2.54232 27.3466C2.88898 26.2057 3.24454 25.0648 3.59121 23.9327C4.16009 23.7099 4.44454 24.2269 4.86232 24.4052Z" fill="black"/>
<path d="M59.9911 26.6868C59.4755 26.5977 59.52 26.045 59.3422 25.6974C59.6533 25.0467 60.6844 25.2785 60.48 26.045C60.4978 26.4283 60.3111 26.5798 59.9911 26.6868ZM60.9244 23.2729L60.5511 23.2819C59.9555 24.61 58.4533 24.3871 57.3155 24.7348C56.9689 24.6634 56.7822 24.6634 56.4355 24.7526L56.72 26.259C57.2089 27.0077 57.4311 25.7242 57.9644 25.8489C58.2667 26.0718 58.4267 26.3481 58.3555 26.7225C58.0178 27.1503 57.6178 27.4444 57.12 27.5068C57.1111 28.1754 57.1111 28.9508 57.6622 29.2539C57.7422 29.04 58.0089 28.9063 57.9022 28.621C58.16 28.1308 58.6311 27.6138 59.2622 27.7119C59.6711 28.3536 60.6044 28.0417 61.1467 27.9169C62.7733 26.6779 61.1822 24.7437 60.9244 23.2729Z" fill="black"/>
<path d="M6.67559 32.7925C6.85337 33.2382 6.46226 33.6839 6.06226 33.6839C4.73781 34.3435 3.17337 34.4415 2.08892 35.6627C1.9467 35.119 1.77781 34.2544 2.17781 33.773C3.26226 34.2544 4.08892 33.4165 4.92448 32.953C4.61337 32.124 3.56448 32.0616 2.88892 31.616L2.00892 31.7586C2.13337 31.099 1.9467 30.3057 2.3467 29.7441C3.52892 31.1436 5.16448 31.9725 6.67559 32.7925Z" fill="black"/>
<path d="M62.3111 29.5303C62.5511 30.1186 62.4267 30.8673 62.48 31.5358C61.68 31.0188 60.5333 30.9653 59.5822 31.2238C59.28 31.3041 59.0933 31.6517 58.8444 31.8656C58.7111 32.5341 59.0489 33.1135 59.6267 33.3631C60.5867 33.3631 61.5378 33.3631 62.2489 32.8015L62.6222 32.7926C62.2222 33.4789 62.9422 34.1296 62.5422 34.807C62.0089 34.9942 61.8222 34.3079 61.3956 34.2098C60.1422 34.1296 58.56 34.6288 57.8667 33.4076C57.3689 32.6589 57.6178 31.5804 58.0622 30.8851C58.9511 29.6907 60.96 30.5464 62.0444 29.5392L62.3111 29.5303Z" fill="black"/>
<path d="M59.2 36.0193C60.1777 36.3669 61.1289 37.187 62.2311 36.8304C62.3289 37.1781 62.6133 37.4544 62.3822 37.8377C61.6444 38.3992 59.8666 38.2299 60.16 39.5223C60.7733 40.4315 62.4444 40.8504 61.4755 42.134C61.4044 42.2944 61.2444 42.2587 61.1022 42.2677L60.5866 41.7774C59.3333 41.8398 57.9111 41.1624 56.8266 41.9824C56.6577 41.9468 56.4177 42.0894 56.3289 41.8665C56.5422 41.2872 56.4355 40.2532 57.1733 40.2086C57.44 41.0732 58.4889 40.4582 59.0666 40.7969C59.2355 40.5741 59.5555 40.7078 59.68 40.4047C59.3866 39.7719 58.8177 39.246 58.3911 38.6755C58.9066 38.1942 59.6622 38.2388 60.1244 37.6327C59.6266 37.2226 59.0755 36.9374 58.4711 36.7859C58.1777 36.8839 57.9733 37.1513 57.6 37.0622L57.8044 35.1725C58.4177 35.0477 58.6755 35.8678 59.2 36.0193Z" fill="black"/>
<path d="M6.80004 38.2032C5.74226 37.1514 4.47115 38.2299 3.28893 38.2834C3.04893 38.5865 2.80893 38.9965 2.56004 39.1837C2.2756 38.6221 1.98226 37.6862 2.25782 36.9196C2.56893 36.9464 2.71115 37.3831 3.02226 37.4099C4.23115 37.1247 5.68004 37.4099 6.64004 36.572C6.86226 37.0355 6.77337 37.8021 6.80004 38.2032Z" fill="black"/>
<path d="M45.5022 29.0936C45.7245 28.9331 45.7778 28.7192 45.7333 28.4607L45.4756 28.2201C45.1378 28.6123 44.9422 27.8457 44.5867 27.8635L44.3467 28.2468C43.8045 32.24 44.0267 36.3759 44.9867 40.1819C44.9689 40.0928 44.5422 39.1034 44.3289 38.5597C43.6711 35.3508 43.9467 31.7231 42.3556 28.9153C42.1689 28.8708 42.1067 29.0847 41.9822 29.1827L41.68 32.5877L41.2178 40.0215L41.2889 43.159C40.6756 41.9022 40.8089 40.3156 40.5689 38.8984C40.6667 35.8678 40.7556 32.5431 39.7422 29.8512C39.5733 29.8958 39.3245 29.7532 39.2445 29.9849C39.1911 29.4858 38.7645 28.9866 39.0845 28.4786C39.7422 27.8724 39.1911 26.0006 40.4178 26.4374C40.5422 26.2056 40.8356 26.3393 41.04 26.2948C41.3511 27.0078 40.7822 27.6942 40.4533 28.3181C40.1778 29.2184 40.48 30.493 40.7733 31.4557C41.1556 31.4913 40.8889 31.0635 41.1378 30.9387C40.7022 30.3236 41.4045 29.673 40.9689 29.0579C41.28 27.8368 42.3467 26.7583 41.8933 25.3945C41.9822 25.1628 42.2311 25.2965 42.3911 25.2608C42.5333 25.9115 42.1245 26.6424 42.6845 27.2663C43.5289 27.6674 43.1289 28.844 43.6178 29.5125C43.6622 28.5855 44.0711 27.1772 43.1733 26.4998C43.12 25.7243 43.6 24.6903 42.8622 24.111C42.5333 24.0218 42.3645 24.2892 42.1156 24.3873C41.8845 24.2981 42.0267 24.0486 41.9822 23.8881C42.3911 23.5138 42.8533 23.2553 43.4756 23.3533C43.0756 25.3054 45.4667 25.6886 45.2 27.5872L45.4578 27.8279C45.5022 27.1505 45.36 26.2502 45.0311 25.5728C43.9645 24.9043 44.64 23.1305 43.9467 22.4085C43.8756 22.3639 43.8133 22.3104 43.7511 22.257C43.5556 22.15 43.2978 22.0876 42.9511 22.0965C42.8711 22.2302 42.6578 22.3015 42.7022 22.4798C42.0089 22.2748 42.9245 21.8648 42.8089 21.4726C42.9422 21.3032 43.1289 21.2765 43.3067 21.2052C43.2978 21.7132 43.4845 22.0163 43.7511 22.257C43.8222 22.3015 43.8933 22.3461 43.9467 22.4085C44.4889 22.7918 45.1911 23.0413 45.2445 23.9327L45.6267 24.3071L45.7511 24.1823C45.4756 23.2998 45.1822 22.3104 44.5689 21.6865C43.9378 20.9021 43.84 19.2175 42.3911 19.476C42.1067 19.6899 41.8667 20.0732 42.16 20.3584L42.2845 20.4832L42.0445 20.7417C40.5689 20.0019 41.9645 17.2119 39.5911 17.6487L39.3511 17.9072L39.4756 18.032L39.3511 18.1568L39.2267 18.032C38.8267 18.2013 39.04 18.6114 38.9956 18.9144C39.1467 19.1373 39.3689 19.1907 39.6267 19.1462L40.1156 18.5133L40.4978 18.8788C40.3022 19.7077 38.8889 19.2977 39.1556 20.4208C38.5333 19.8058 37.6622 18.7718 38.3467 17.8002C38.6489 17.2833 38.7556 16.695 38.6845 16.0265C38.9067 16.4008 38.7467 17.0426 39.3422 17.1406C39.8489 16.9178 40.5422 16.7395 41.0933 16.9802C41.9645 17.7378 43.2889 18.1033 44.3645 17.5328C44.88 17.8448 44.4711 18.335 44.2667 18.6648L43.6533 19.3066C45.3156 20.5188 45.9467 22.4174 46.4 24.2803C47.04 25.1984 47.5733 26.3928 48.7111 26.8652C47.4756 26.9544 46.6845 25.9026 45.6711 25.4302C44.9245 26.6602 46.0533 27.6853 46.2489 28.8084C46.2489 30.6891 47.3689 32.0707 47.3689 33.9425L48.0356 35.5558C46.4445 33.7375 46.3467 31.2506 45.5022 29.0936ZM45.4667 32.9888L45.0933 33.1225C44.9156 32.3648 45.1467 31.9013 45.0489 31.108C45.2622 31.7052 45.5645 32.2579 45.4667 32.9888ZM38.6578 31.5091C38.9067 32.1687 38.7645 32.5253 38.8178 33.2651C38.4 32.9531 38.5245 32.0172 38.6578 31.5091ZM38.3822 30.2613C38.3822 29.9493 38.2489 29.7086 37.9822 29.5125C37.7156 29.5482 37.5733 29.8601 37.3689 30.0295C37.0311 29.4412 36.96 28.7281 36.4889 28.2022C36.4445 28.2201 36.4 28.2379 36.3556 28.2557C35.6533 29.0401 35.6445 30.8495 34.24 30.7337C33.8845 30.4573 33.52 30.0295 33.84 29.6106C34.48 28.746 35.5645 29.7354 35.9467 28.5588C36.0445 28.4162 36.1956 28.327 36.3556 28.2557C36.3822 28.2201 36.4178 28.1933 36.4445 28.1666C36.4533 28.1844 36.4711 28.1933 36.48 28.2112C37.0311 28.0151 37.6978 27.9794 37.5467 27.1415C37.3689 26.9187 37.04 27.0702 36.7911 27.0346C36.7556 26.7404 37.0845 26.785 37.2889 26.7761C37.7156 27.1326 38.1867 27.3733 38.8 27.2485C38.8978 28.0418 38.1956 28.6836 38.4711 29.3966L38.3822 30.2613ZM35.9378 38.738C35.52 39.0232 34.9422 39.3084 34.4356 39.0232C34.0533 38.5329 33.52 38.4438 33.5378 37.7842C34.1511 36.8037 35.2889 38.0784 35.9022 37.1068C36.4711 37.5614 35.92 38.1942 35.9378 38.738ZM35.2711 31.7052L35.5289 31.6963C35.6889 32.4451 35.3867 33.0155 34.8178 33.4701C34.4267 33.2383 34.1156 33.0868 34.0445 32.6055C33.8222 31.6339 34.9778 32.2579 35.2711 31.7052ZM33.44 33.889C34.1333 34.1119 35.04 34.9854 35.7067 34.094C35.8489 34.8071 35.6178 35.6717 34.9956 36.2511C34.3111 36.3491 33.6711 35.743 33.4667 35.1547C33.2711 34.8071 33.2622 34.2367 33.44 33.889ZM32.0533 33.5414C31.5645 32.8016 30.7822 32.0439 31.2445 31.0367C32.0178 31.9637 33.9911 30.0295 33.2711 32.1242C33.0845 32.6857 32.8 33.5325 32.0533 33.5414ZM32.2489 47.7495C32.4178 47.8921 32.4178 48.1238 32.6311 48.2486C32.9333 48.2754 33.1467 48.106 33.3778 47.9812C34.0178 48.5962 32.4711 49.443 33.7956 49.862C34.5333 49.9065 34.9245 49.1489 35.6622 49.1934C35.7333 49.6391 35.4578 50.0581 35.0578 50.2096C34.48 50.1472 33.8667 50.272 33.6889 50.8692C33.6445 51.5199 34.2311 51.7783 34.72 51.9744C35.0045 51.9744 35.3156 51.9031 35.4756 52.2062C34.4267 52.6786 33.6178 50.9405 32.5778 51.7694C32.2845 52.7945 33.4933 53.9621 31.8756 54.1761C30.4711 53.98 32.0622 51.404 30.3289 52.0725C29.9289 52.3488 29.4756 52.8391 28.96 52.4825L28.8267 52.3577C29.4667 52.0547 30.2311 51.814 30.56 51.0653C30.4267 50.7979 30.3289 50.5215 30.0445 50.3255C29.5822 50.1204 28.9689 50.3076 28.6489 49.7283C29.2622 50.3165 30.6133 49.5767 30.8 50.682C30.5778 50.78 30.7289 51.0207 30.6845 51.1901C30.8445 51.4129 31.0578 51.4664 31.3156 51.4218C31.6533 51.7605 31.12 52.9282 32.0978 52.536C32.4089 51.9923 32.32 50.8424 33.3156 51.0029C33.44 50.7444 33.7245 50.3878 33.4222 50.1204C32.5422 49.853 33.2 48.9082 32.6311 48.4982C32.0622 48.5695 31.36 48.3467 31.0133 48.9171C30.6489 48.8726 30.4 48.5606 30.1245 48.3021L30.1156 48.0525C30.7111 47.9366 31.2711 49.1221 31.7422 48.1417C31.4578 47.0096 32.6311 46.4392 32.1778 45.2359L32.3022 45.1111L32.1778 44.9863C32.4267 43.0521 32.4889 41.0376 32.9245 39.1836L33.1822 39.4243C31.9289 41.8398 32.7556 45.0576 32.2489 47.7495ZM31.1111 36.4561C31.1467 35.8946 31.4045 35.3063 31.9556 35.0478C32.7645 34.9408 32.7289 35.8678 33.1111 36.2868C32.9245 36.8037 32.5956 37.2761 32.1422 37.6951C31.4311 37.6683 31.4578 36.8661 31.1111 36.4561ZM30.6845 39.4867L30.9422 39.7273C31.1645 40.9307 31.4133 42.1162 31.52 43.364L31.2622 43.1234L30.6845 39.4867ZM30.0356 38.4973C29.5467 38.8895 29.0311 39.3886 28.4089 38.9073C27.7511 38.6845 28.0267 37.6594 28.1156 37.1514C28.6578 36.777 29.0133 38.1764 29.76 37.499L30.2489 37.1068C31.1467 37.3742 30.2222 38.0784 30.0356 38.4973ZM27.92 28.3449C27.2978 28.7905 27.6356 29.6106 27.2089 30.1276C26.9156 29.9849 26.8 29.2184 26.1956 29.5214C25.8222 30.5821 26.0178 31.8657 25.6445 32.9264C25.4045 32.552 25.5378 32.0083 25.4845 31.5448L25.8578 31.1526C24.6045 30.9832 25.7333 28.4073 24.32 29.6819C24.2578 30.5643 24.0089 31.527 24.1333 32.3292L23.5378 39.5134L23.4133 39.6382C23.5822 35.9837 22.7289 32.3381 22.9156 28.4518L22.6578 27.9527C22.0267 28.3894 21.6533 28.951 21.4311 29.5749C21.4311 29.5838 21.4311 29.6017 21.4311 29.6195L21.4045 29.6462C20.9067 31.1437 21.2178 33.0155 20.7911 34.5397C20.08 36.6611 20.5156 39.2193 18.6667 40.8861L18.4178 40.895C20.7289 37.6149 19.8133 33.069 20.8 29.2629C20.24 28.7281 21.3689 27.5961 20.2578 27.6407C18.9689 29.9849 18.0356 32.454 16.6489 34.7626C16.56 34.2188 17.3422 33.7108 17.4933 33.1046C17.6267 30.7158 18.5067 28.6301 19.3511 26.5176C19.2978 26.2948 19.4756 25.858 19.0845 25.8937C18.1245 26.063 17.3956 26.7672 16.3378 26.7137L15.8489 26.7404C16.64 26.0095 17.8133 25.6352 18.5511 24.5388C19.92 22.9166 19.6711 20.6615 21.4489 19.1907C21.5556 17.9339 19.3422 19.1729 19.9111 17.7111C21.2445 18.9233 22.6667 17.4883 24.0445 17.3724C24.3733 16.9445 24.3467 16.3652 24.7645 15.973C25.0578 17.0782 26.1067 18.8164 24.7289 19.8771C24.3645 20.4832 23.8756 19.8058 23.3511 20.0286C22.8533 19.9306 22.7111 19.2888 22.9511 18.9055C23.0667 18.9412 23.1289 18.8431 23.2 18.7718C23.4222 18.9322 23.2889 19.262 23.5911 19.3868C23.9022 19.476 24.1422 19.262 24.2045 18.9946C24.4 18.4777 23.8845 18.1746 23.5556 18.0052C22.8978 17.8537 22.3645 18.2459 22.0622 18.6648C21.8311 19.1462 22.0267 19.9038 21.9733 20.3049C21.3956 20.403 20.5156 20.5723 20.24 21.3478C20.24 22.2926 19.4222 22.9344 19.4133 23.8881C19.2622 24.2625 18.72 24.6547 18.9422 25.0291C19.9733 24.6101 19.8489 23.3355 20.8978 22.7205C20.8978 22.5778 20.8533 22.4174 21.0133 22.3372C21.5556 22.2035 21.9556 23.0057 22.5422 23.0592C22.5245 23.2553 22.7556 23.3355 22.6756 23.5583L22.5511 23.692C22.3111 23.3088 21.9378 23.2998 21.5378 23.3355C20.9867 24.7795 19.7689 25.965 19.2445 27.4089L19.3689 27.5337C19.9111 26.3661 21.1556 25.8045 21.5645 24.5923C22.4356 25.0736 23.1645 24.1466 23.9378 24.414C23.9022 24.6279 24.0533 24.9132 23.8311 25.0469C23.5556 24.9132 23.3067 24.726 22.9511 24.8151C21.9378 25.4391 21.9822 26.6959 21.1289 27.4981C21.0222 28.2112 20.9156 28.9331 20.8 29.6462C20.9245 29.7264 20.9956 29.9404 21.1822 29.8869L21.4045 29.6551C21.4133 29.6373 21.4222 29.6106 21.4222 29.5927C21.3956 28.3092 22.1333 27.3376 22.48 26.2056C23.1022 25.3321 24.3378 26.4463 24.9778 25.5193C25.1378 25.6352 25.4933 25.546 25.36 25.8937C25.1289 26.2413 24.9067 25.7867 24.6133 25.9115C23.0489 26.9187 23.5733 28.9599 23.3333 30.6L23.5911 30.8406C23.92 30.1543 23.8845 29.3343 24.2933 28.6836C24.3022 28.1309 23.9111 27.4892 24.3822 27.0435C24.9333 26.9365 25.3956 27.3198 25.8933 27.0078C25.8667 27.7209 25.4667 28.4429 25.8133 29.1471C26.16 28.844 26.1245 28.3805 26.2845 28.0061C26.8178 27.5783 27.5467 27.3287 27.8933 26.7137C28.0356 26.7137 28.1867 26.6691 28.2667 26.8296C28.1422 27.0435 27.76 27.1505 27.9111 27.4713C28.6756 27.9972 28.9333 30.0652 30.2045 29.049C30.4445 29.3877 30.8711 29.9493 30.3556 30.3058C29.8311 31.0991 29.0311 30.4039 28.72 29.8334C28.32 29.4056 28.4533 28.7281 27.92 28.3449ZM27.8667 31.5002L27.8578 31.2417L27.9733 30.8674L27.8667 31.5002ZM27.0045 26.4909C26.9156 26.7226 26.6667 26.58 26.5067 26.6246L26.3733 26.4998C26.56 26.4285 26.8356 26.2324 27.0045 26.4909ZM29.5022 31.5894C29.5111 31.6607 29.5022 31.7141 29.4845 31.7587C29.5111 32.1242 30.08 31.8211 30.2667 32.0796C30.3467 32.7392 30.2756 33.3364 29.68 33.7286C29.36 33.8712 29.2533 33.4879 29.04 33.3631C28.8 32.9799 28.9333 32.4451 28.8889 31.9816C28.9956 31.732 29.3956 31.9548 29.4933 31.7587C29.4845 31.7052 29.4845 31.6518 29.5022 31.5894ZM28.6933 34.6288C29.5378 35.1013 30.0978 34.2545 30.8089 34.0762L31.0667 34.3258C30.9867 35.1637 30.2845 35.8767 29.6089 36.367C28.8889 36.3402 28.9156 35.5469 28.5778 35.128C28.6133 34.9676 28.4622 34.718 28.6933 34.6288ZM33.5645 27.9705C33.1645 28.7103 32.8178 29.7888 31.9822 30.0206C31.6267 29.3699 30.8889 28.7281 31.3067 27.8992C32.1867 29.2986 33.1022 26.678 33.5645 27.9705ZM29.2445 25.9293C29.7689 25.2965 30.6667 25.4926 31.3689 25.2519C31.8845 25.4836 31.84 26.2858 32.5156 26.1076L33.12 25.0914C34.2133 25.9026 36.0089 24.2536 36.0356 26.4106C35.8311 27.0613 35.5733 27.7031 34.9511 28.1933C34.0445 27.6407 34.0889 26.4463 33.6356 25.5817C32.64 25.6263 32.9956 27.0791 32.0445 27.2485C31.6178 26.785 31.3245 26.2591 31.2533 25.6352C30.6756 25.8847 30.8622 26.6513 30.6667 27.1505C30.2311 27.4803 30.0978 28.2736 29.44 28.1844C28.8 27.5337 28.9333 26.6959 29.2445 25.9293ZM31.52 20.5991C31.8311 20.3673 32.3022 20.5367 32.5156 20.0732C32.5778 18.8609 31.4133 18.3172 30.5778 17.7289C30.4356 17.7289 30.2845 17.7646 30.2045 17.6041C31.4489 17.4794 32.2578 19.2888 33.4845 18.4153C33.8311 17.8448 32.72 17.4794 33.4578 17.1585C34.2133 17.1139 34.7111 17.5596 34.8622 18.2548C34.88 20.0019 33.0311 22.6224 35.36 23.6564L35.4845 23.7812C34.9067 23.8168 34.7378 24.7884 33.9911 24.4408C33.6267 24.1912 33.4045 23.5851 32.8533 23.8346L32.3645 24.4764C31.9645 23.487 30.96 24.0486 30.3556 24.3873C31.52 23.5405 31.68 22.0787 31.52 20.5991ZM40.7733 24.9132C40.8 25.2341 40.4445 25.1717 40.2845 25.3054C40.1333 24.9756 40.5422 24.8953 40.7733 24.9132ZM46.5956 27.302C47.2445 26.8028 47.6978 27.6318 48.3556 27.5159C48.5422 27.3644 48.9245 27.2931 49.1111 27.4981C49.2356 27.2663 49.5289 27.4089 49.7333 27.3555C50.0889 27.3287 50.0622 26.9276 50.2222 26.7137C46.1956 26.1967 47.44 21.5617 44.7911 19.5384C44.9511 18.7451 45.4578 18.0855 45.2356 17.1317C44.9422 16.8287 44.8178 16.1067 44.2133 16.276C44 16.6326 43.8667 16.9356 43.4845 17.1763C42.5333 17.408 41.9911 16.5613 41.2089 16.3473C39.5733 16.7395 40.1333 14.841 38.7822 14.5201C38.2133 14.422 37.1378 14.1457 36.9156 14.939L37.8133 15.9284C38.2311 16.8732 37.7067 17.7735 37.3778 18.5846C37.3689 19.4492 37.8578 20.091 38.4267 20.6971C38.64 21.0447 38.48 21.8915 39.2 21.6865C39.92 21.3656 39.9467 20.6615 40.4178 20.0197C40.64 20.0108 40.7556 20.2604 40.9333 20.3851C40.9156 21.3032 42.1689 21.6508 41.7333 22.7561C41.36 23.9862 40.0356 24.0842 39.28 24.9488C38.3467 24.8508 37.8222 25.6441 37.04 25.8847C36.4267 25.7243 36.4356 25.0558 36.1333 24.6458C36.2578 24.5566 36.32 24.3338 36.5067 24.3873C36.8445 24.2714 36.9333 24.1288 36.8711 23.7455C36.5067 23.2374 35.9911 23.1305 35.4756 23.0235C33.8311 21.6152 35.76 19.8236 35.6178 18.1122C35.4667 16.0086 32.88 16.8019 31.44 16.3206C30.5245 17.408 28.3022 16.2671 27.9645 17.9072C28.2578 18.0944 27.8756 18.8164 28.4889 18.6559C28.4356 18.4777 28.6489 18.3974 28.7289 18.2726C29.7245 18.0587 30.9156 18.4242 31.5111 19.3423C30.6933 19.6721 29.8489 18.4598 28.9956 19.271C29.3511 19.6899 29.9822 19.3957 30.2667 20.0019C31.3156 20.4921 30.8622 21.8113 30.8267 22.6313C30.4889 23.7723 29.2622 23.9238 28.4889 24.5745C28.3733 24.9132 28.7022 25.0558 28.7556 25.3232C28.4089 26.3037 27.4222 25.7956 26.7556 25.6263C26.1156 25.0914 24.7911 25.1984 24.8356 24.0307C24.4978 24.0129 24.3733 23.4603 23.9467 23.6742C23.7778 23.4692 23.4756 23.3177 23.4311 23.0592C22.8711 22.6759 22.4089 21.9183 22.7645 21.1874C23.6889 20.0375 23.9378 22.1767 25.0311 21.7667C24.8978 20.6882 25.5822 19.9216 26.0978 19.1016C26.4445 18.0766 25.9467 17.1139 25.6622 16.2136C25.6978 15.5362 26.5245 15.3936 26.5067 14.8142C25.2445 14.217 23.84 15.2866 23.7867 16.5078C22.9956 17.203 21.9645 17.3278 20.9245 17.4526C20.4089 17.3011 20.1511 16.481 19.5289 16.6058C19.3333 16.9535 19.0489 17.2743 19.1733 17.7468C18.9956 18.5401 19.4489 19.1729 20.0889 19.4849C19.3067 20.8486 18.7111 22.2926 18.3022 23.8079C17.4133 25.3945 15.8311 25.9293 14.3467 26.4106C14.6311 27.2842 15.7067 27.2485 16.4978 27.3733C16.9956 27.302 17.8133 26.8831 18.1333 27.4624C16.4711 30.1721 17.28 33.9603 14.4356 36.0996L15.3156 36.2065C17.8578 36.1174 18.2756 33.2294 19.3511 31.5894L19.4756 31.7141C18.8978 35.1191 19.7867 39.4243 16.56 41.4655C17.36 41.822 18.16 41.8042 18.9422 41.412C20.4356 40.1908 20.9956 38.3992 21.2178 36.5809C21.5289 35.3152 21.4489 33.9069 22.1333 32.7838C22.6489 33.3275 22.2311 34.2812 22.56 34.9141C22.2845 38.3547 23.7156 42.5707 21.1556 45.013C21.36 45.0933 21.5022 45.3607 21.7867 45.2537C24.5778 44.4515 24.0978 41.0733 24.4 38.6488C24.5867 37.5168 24.3911 36.2244 24.9511 35.235C25.04 35.7341 25.3245 36.1531 25.2356 36.7413L25.6089 36.7324C25.9111 35.2974 26.4089 33.9425 26.5156 32.4361L26.7645 32.1776L27.1467 32.552C27.3867 32.3381 27.7245 31.937 27.7511 31.5359C27.8845 32.0172 28.0533 32.4896 28.0356 33.0333C27.4311 33.9336 28.3378 35.44 27.3511 36.1887C26.8978 37.294 27.2 38.7023 27.68 39.7095C27.9378 41.0911 27.5289 42.6331 26.3911 43.5156C26.0267 43.2214 25.76 42.8916 25.8667 42.3925C25.7511 41.9111 25.4489 41.6259 24.9689 41.5279C24.8889 42.0448 24.7111 42.5173 24.3733 42.9273C24.16 43.7117 24.9422 44.1484 25.4133 44.6654C24.9067 46.1807 22.1067 44.2643 22.6933 46.4927L23.3245 46.4748C24.48 47.2503 25.1822 45.5389 26.3111 45.53C26.9333 46.4124 25.2889 47.0364 25.4933 48.0703C26.1511 47.9456 26.8089 47.8208 27.2267 47.1523C26.9245 45.7974 28.4889 45.1735 29.2978 44.5852C30.3111 44.5317 29.76 43.4264 29.8845 42.8114C29.4133 42.9005 29.1111 43.3819 28.64 43.471C28.4267 43.3462 28.4267 43.1145 28.2578 42.9718C28.6222 41.9914 28.8889 40.8683 29.7067 40.173C30.88 42.0983 30.7467 44.603 30.9867 46.9383C30.8533 47.7762 30.2311 46.9294 29.7333 47.2147C29.1378 47.4553 29.3511 48.2308 29.1467 48.7389C28.6667 48.4625 28.1245 48.311 27.5111 48.4001C27.2622 48.516 26.8533 48.7834 27.0311 49.1667C28.1067 49.5589 28.0089 50.8068 28.96 51.2614C28.88 51.4218 28.72 51.3862 28.5867 51.3951C28.0889 51.5912 27.3511 52.1349 27.4933 52.8034C28.2933 52.8034 29.0311 53.3649 29.76 53.1332C30.0445 53.1332 30.3556 53.053 30.5156 53.3649C30.64 54.0602 30.9778 54.7733 31.68 55.1031C32.4533 54.8535 33.4578 54.3543 33.6533 53.5432C33.4578 52.0636 34.9245 53.7482 35.6445 52.9995C36.0978 52.9014 36.6667 53.5878 36.9067 52.9728C36.9867 51.9566 35.7689 51.7338 35.4845 50.994C36.1245 50.6909 36.4622 49.7282 37.2089 49.7015C37.28 49.3361 37.0756 49.0954 36.9422 48.828C36.24 48.3377 35.2978 48.7389 34.56 48.8815C34.1778 48.5517 34.7378 48.2843 34.5333 47.8743C34.3911 47.3394 33.8222 47.3394 33.3956 47.2681C32.5778 45.9311 33.2445 44.2554 33.1733 42.7401C33.5733 41.8131 33.2 40.3602 34.3645 39.9413C35.8845 40.2354 35.5556 42.0003 35.8222 43.1858C35.2445 43.881 34.7645 42.749 34.0622 42.9718L34.2045 43.8454C34.32 44.193 34.6845 44.4604 35.0933 44.3267C36.2222 44.7724 37.2889 45.4587 37.4045 46.7957C37.7867 47.2949 38.4533 47.0631 38.8089 47.6425C39.0311 47.4642 38.88 47.1433 38.9156 46.8849C38.64 46.2342 37.4311 45.8331 37.8667 45.0219C38.8 45.7439 40.0178 46.154 41.1467 45.9579C40.7467 44.4247 39.0133 44.9328 38.2222 44.1395C38.6311 43.6849 39.3778 43.988 39.7156 43.3462C39.9467 42.5173 39.2445 42.0983 39.2889 41.3407C37.84 41.2337 38.5956 42.9629 37.7067 43.3908C37.2711 43.364 37.2889 42.9986 36.9422 42.7758C35.7867 40.1463 37.9556 37.9447 36.4089 35.4935C36.8356 34.299 35.9467 32.7392 36.5689 31.4646C36.9867 31.6518 37.0045 32.249 37.3511 32.5788C37.5289 32.6233 37.6 32.4005 37.7156 32.3203L37.9733 32.5698C38.0711 34.0316 38.3556 35.4043 38.8178 36.6968C39.2356 36.1798 39.2 35.4845 39.5289 34.923L39.7867 35.1726L40.3289 42.7044L40.8622 44.2019C41.2533 45.0754 42.1867 45.7172 43.1467 45.6637L43.1111 45.3696C42.0533 44.5763 42.1778 43.266 41.9111 42.1251C42.0178 39.3084 41.9378 36.4294 42.2311 33.684L42.48 33.4255C43.3956 36.3759 43.2089 39.9324 45.8045 42.0359C46.4356 42.0627 47.0667 42.4727 47.6889 42.1162L47.68 41.8666C45.2622 40.2978 45.0756 37.0622 44.9956 34.1297L45.2445 33.8712C45.3333 34.094 45.5733 33.9425 45.7422 33.9871C46.3111 34.5932 46.7378 35.2528 47.04 35.9748C47.6089 36.7859 48.4445 37.4812 49.4578 37.4277C49.8311 37.2138 50.4711 37.3653 50.5689 36.777C46.8267 35.021 48.2933 30.2969 46.5956 27.302Z" fill="black"/>
<path d="M7.74213 40.9484L7.75102 41.4565C7.31546 41.4921 6.8799 41.1801 6.49768 41.4832C5.82213 42.3032 5.34213 43.1946 5.04879 44.1572C5.9199 44.6118 6.48879 43.6492 7.28879 43.6046L8.01768 42.5796C8.50657 42.9717 8.63102 43.7383 8.93324 44.3177C7.35102 44.2999 5.86657 44.7901 4.9599 46.0469C4.2399 46.2341 4.35546 45.3873 4.06213 45.0575C3.88435 43.8898 5.03102 43.0787 4.74657 42.0269C4.1599 41.8487 3.78657 42.4102 3.50213 42.6776C2.95101 42.4102 2.9599 41.6793 2.96879 41.0554C4.30213 41.5723 5.29768 40.5829 6.47102 40.3512C6.8799 39.1211 7.67102 40.369 7.74213 40.9484Z" fill="black"/>
<path d="M59.04 45.8419C58.5867 46.2876 57.6978 45.9935 57.4311 46.6263C57.2178 46.5907 56.9334 46.7422 56.8 46.5193C57.7156 45.628 55.28 44.5138 57.0045 44.5049C57.5822 44.6386 57.7511 43.8364 58.3822 44.0949C58.48 44.7277 58.6756 45.316 59.04 45.8419Z" fill="black"/>
<path d="M10.6312 46.7957C11.1734 47.3305 11.2712 48.2129 11.049 48.926C10.4001 50.1828 8.67563 50.2541 8.34674 51.7516C7.71563 51.7605 7.52896 50.8959 7.31563 50.3878C8.47119 50.1115 9.57341 49.4608 10.2845 48.4358C10.3734 47.8118 9.86674 47.3305 9.37785 47.072C8.19563 47.0631 7.12008 47.5444 6.52452 48.6408L6.53341 48.8993C5.86674 48.7745 5.76007 47.9455 5.49341 47.4107C7.15563 47.4196 8.24007 45.735 9.99119 46.3054L10.6312 46.7957Z" fill="black"/>
<path d="M58.2399 49.1221C58.1422 49.7015 57.7511 50.3789 57.1377 50.5304C56.6577 49.3984 55.4488 48.4803 54.2044 48.4625C53.8844 48.819 53.4755 49.131 53.4844 49.6123C53.9644 50.7889 55.2266 51.6179 56.4177 51.814C56.1777 52.2685 55.9822 52.8568 55.4399 53.0886C55.2977 52.9371 54.9066 52.9281 55.0488 52.5983C54.0444 51.4663 51.7066 50.5393 52.5777 48.6229C53.0399 48.0079 53.6177 47.6692 54.3111 47.5801C55.8666 47.4464 56.7199 49.131 58.2399 49.1221Z" fill="black"/>
<path d="M13.129 51.8943C12.8267 52.7143 13.1556 53.4006 13.0579 54.1583C12.3645 54.2385 11.8579 53.4719 11.1734 53.9533L10.6667 53.7126C11.8223 53.053 9.7423 50.7801 11.8756 51.7962C12.3734 52.019 12.7734 51.2971 13.129 51.8943Z" fill="black"/>
<path d="M50.1422 52.0724C49.6889 53.3203 50.9244 54.1493 51.5911 55.0584C52.0622 55.5041 52.32 54.7554 52.7111 54.6573C53.3955 54.4701 52.6222 53.1153 53.5644 53.6323C53.8666 53.9086 54.1778 54.176 54.0889 54.6306C52.7555 55.6913 51.7155 56.645 50.3911 57.7325C49.7244 58.0533 49.7066 57.2601 49.3689 57.0016C49.8844 56.8233 50.6933 56.5381 50.9778 55.8339C50.08 55.0139 49.7066 53.4094 48.2844 53.3738C48.5066 52.7944 49.2622 52.429 49.76 51.9565L50.1422 52.0724Z" fill="black"/>
<path d="M19.3601 55.9053C19.0046 56.3064 18.489 56.8679 17.8757 56.9482C17.9646 56.2797 17.4046 55.8964 16.9601 55.4596C16.5957 55.3081 16.409 55.4685 16.0801 55.6022C15.4668 57.0729 18.4623 58.1782 16.5423 59.4885C15.7512 59.5598 14.9957 59.5331 14.5157 58.7754C14.8712 57.8395 12.3912 56.8679 14.3379 56.5203C15.0223 56.6897 15.0223 58.9626 16.0001 57.8662C15.5557 57.0106 14.729 56.1638 15.0579 55.1209C15.2801 54.6307 15.7601 54.2563 16.2934 54.2117C17.7334 54.0335 18.1334 55.8964 19.3601 55.9053Z" fill="black"/>
<path d="M46.5688 54.9248C46.4088 56.1905 47.3154 57.3047 48.151 58.2852C48.391 58.5258 49.1643 58.2317 48.9154 58.9002C48.3377 59.1676 47.8754 59.6935 47.1732 59.6935C46.791 58.2763 46.2399 56.7075 44.8354 55.9677C45.0666 55.3348 45.911 55.0942 46.5688 54.9248Z" fill="black"/>
<path d="M21.9022 57.1086C22.0533 57.4562 21.68 57.376 21.5377 57.5008C20.7644 58.615 19.6 59.7292 20.1155 61.1821C19.36 61.3782 18.9155 60.772 18.3377 60.469C18.2311 60.0857 18.7733 60.1748 18.96 59.952C19.4844 58.82 20.8977 57.7236 20.1333 56.4044C20.8622 56.2797 21.2444 57.0551 21.9022 57.1086Z" fill="black"/>
<path d="M43.6 56.752C43.5555 58.1247 44.2311 59.7291 45.44 60.4779C45.4844 61.2088 44.6489 60.9592 44.3289 61.387C43.2978 61.3425 42.48 60.7631 41.5466 60.4422C40.9955 60.8433 41.5644 61.3692 41.5822 61.8327C41.7333 61.9932 41.9555 61.9842 42.0978 62.1982C41.5733 62.5101 41.0489 62.8221 40.3555 62.7419C40.5066 61.1553 39.8222 59.5152 38.8711 58.3654C39.3866 58.1425 40.0355 57.7325 40.7378 57.688C40.8178 58.2762 40.4355 59.1676 41.4044 59.435C42.0266 59.747 42.7111 60.3442 43.4222 60.0233C43.1733 59.0517 42.9244 57.9643 41.9822 57.4116C42.3289 57.0105 42.9333 56.3331 43.6 56.752Z" fill="black"/>
<path d="M26.7021 58.7663C26.7732 59.212 26.4888 59.631 26.0977 59.7825C25.4221 59.5062 24.9066 58.8198 24.071 58.9446C23.9466 59.2031 23.671 59.5596 23.9644 59.8271C24.5955 60.6204 25.831 60.6917 26.0177 61.7969C26.0444 62.4744 25.6177 62.8576 25.0399 63.0805C23.591 63.2855 22.7644 61.8593 21.3777 61.9039C21.3155 61.5473 21.7244 61.2621 21.991 61.1373C22.8888 60.9858 23.9821 63.1696 24.3821 61.4582C23.7777 60.4243 21.5821 59.8805 22.5599 58.3563C23.111 57.5452 24.1955 57.8839 24.9332 58.0444C25.5732 58.1513 25.9021 59.0694 26.7021 58.7663Z" fill="black"/>
<path d="M29.6 59.2032C29.6712 59.6578 28.9867 59.8094 29.2534 60.3442C29.76 60.9503 30.2578 61.7971 31.04 62.0645C31.4934 61.494 31.1734 60.6383 31.2445 59.9163C31.0312 59.7024 30.7378 59.5241 30.8445 59.1765C31.5467 59.0517 32.0978 59.3191 32.7289 59.3815C31.6445 60.362 32.2667 62.1536 32.32 63.4193L32.7023 63.7848C30.8445 64.997 30.3734 62.3943 29.1467 61.8505C28.6934 62.2071 28.72 62.9112 28.9334 63.3658L29.0578 63.4906C28.4356 63.7491 27.7067 63.4817 27.0489 63.4104C27.04 63.143 27.5912 62.8667 27.6534 62.5191C27.6712 61.2979 28.0623 60.0768 27.6978 58.8645C28.4178 58.7843 29.04 58.9002 29.6 59.2032Z" fill="black"/>
<path d="M37.7421 58.7664C37.4666 60.3263 37.751 61.9396 38.5954 63.1519L38.231 63.4103L34.3554 63.8738C33.8932 63.7045 34.1688 63.2053 34.0799 62.8755C34.3999 62.7507 34.8888 62.9736 35.2177 63.2232C35.8132 62.9379 36.6754 63.2677 37.0843 62.5547C37.1021 62.1001 37.0843 61.5474 36.551 61.4316C36.1332 61.7346 36.1154 62.207 35.5643 62.207C35.2443 61.69 35.2088 60.8967 35.3954 60.3263L35.7688 60.3174C35.7688 60.5402 36.0266 60.6472 36.1599 60.8165C36.391 60.8878 36.5154 60.6917 36.6577 60.5491C36.6754 60.148 36.6488 59.7736 36.2577 59.5508C35.5554 59.8628 34.4088 59.426 34.1421 60.4778L33.8843 60.4867L33.8577 59.2299C35.1999 59.1764 36.311 58.5882 37.7421 58.7664Z" fill="black"/>
<path d="M32.0621 9.90298C31.7777 9.90298 31.5555 9.68014 31.5466 9.39491C31.5466 9.10968 31.7688 8.87793 32.0532 8.87793C32.1421 8.87793 32.231 8.87793 32.3199 8.87793C32.3643 8.87793 32.4177 8.87793 32.4621 8.87793C32.7466 8.87793 32.9688 9.10968 32.9688 9.39491C32.9688 9.68014 32.7377 9.90298 32.4621 9.90298C32.4177 9.90298 32.3643 9.90298 32.3199 9.90298C32.231 9.90298 32.151 9.90298 32.0621 9.90298ZM34.2488 9.9832C34.231 9.9832 34.2221 9.9832 34.2043 9.9832C34.1243 9.97429 34.0355 9.97429 33.9555 9.96537C33.671 9.94755 33.4577 9.69797 33.4843 9.42165C33.5021 9.13642 33.751 8.93141 34.0266 8.94924C34.1155 8.95815 34.1955 8.95815 34.2843 8.96706C34.5688 8.98489 34.7732 9.23447 34.7555 9.5197C34.7288 9.77819 34.5066 9.9832 34.2488 9.9832ZM30.2755 9.99211C30.0088 9.99211 29.7866 9.7871 29.7688 9.5197C29.7421 9.23447 29.9555 8.99381 30.2399 8.96706C30.3288 8.95815 30.4088 8.95815 30.4977 8.94924C30.7821 8.93141 31.0221 9.13642 31.0399 9.42165C31.0577 9.70688 30.8443 9.94755 30.5688 9.96537C30.4888 9.97429 30.3999 9.97429 30.3199 9.9832C30.3021 9.99211 30.2844 9.99211 30.2755 9.99211ZM36.0177 10.1882C35.991 10.1882 35.9643 10.1882 35.9377 10.1793C35.8577 10.1704 35.7777 10.1526 35.6888 10.1436C35.4132 10.108 35.2177 9.84058 35.2532 9.56427C35.2977 9.28795 35.5555 9.09185 35.831 9.12751C35.9199 9.13642 35.9999 9.15425 36.0888 9.16316C36.3643 9.20773 36.5599 9.46622 36.5155 9.74254C36.4799 10.0099 36.2666 10.1882 36.0177 10.1882ZM28.4977 10.206C28.2488 10.206 28.0355 10.0278 27.991 9.76928C27.9466 9.49296 28.1332 9.22555 28.4177 9.18099C28.5066 9.17207 28.5866 9.15425 28.6755 9.14533C28.951 9.10077 29.2177 9.29686 29.2532 9.57318C29.2977 9.8495 29.1021 10.1169 28.8266 10.1526C28.7466 10.1615 28.6577 10.1793 28.5777 10.1882C28.551 10.206 28.5244 10.206 28.4977 10.206ZM37.7688 10.5269C37.7332 10.5269 37.6888 10.5269 37.6532 10.518C37.5732 10.5002 37.4932 10.4824 37.4132 10.4645C37.1377 10.4021 36.9599 10.1347 37.0221 9.85841C37.0844 9.58209 37.3599 9.40382 37.6355 9.46622C37.7155 9.48404 37.8044 9.50187 37.8932 9.5197C38.1688 9.58209 38.3377 9.85841 38.2755 10.1347C38.2132 10.3665 38.0088 10.5269 37.7688 10.5269ZM26.7466 10.5537C26.5155 10.5537 26.3021 10.3932 26.2488 10.1615C26.1866 9.88515 26.3555 9.60883 26.631 9.54644C26.7199 9.52861 26.7999 9.51079 26.8888 9.48405C27.1643 9.42165 27.4399 9.59101 27.5021 9.86732C27.5644 10.1436 27.3955 10.42 27.1199 10.4824C27.0399 10.5002 26.9599 10.518 26.8799 10.5358C26.8266 10.5447 26.791 10.5537 26.7466 10.5537ZM39.4932 10.9904C39.4399 10.9904 39.3955 10.9815 39.3421 10.9637C39.2621 10.9369 39.1821 10.9102 39.1021 10.8924C38.8355 10.8122 38.6755 10.5269 38.7555 10.2595C38.8355 9.99211 39.1199 9.83167 39.3955 9.91189C39.4755 9.93863 39.5644 9.96537 39.6443 9.99211C39.911 10.0723 40.0621 10.3665 39.9821 10.6339C39.9199 10.8478 39.7155 10.9904 39.4932 10.9904ZM25.0221 11.0261C24.8088 11.0261 24.6043 10.8835 24.5332 10.6695C24.4532 10.4021 24.5955 10.1169 24.871 10.0278C24.951 10.001 25.0399 9.97429 25.1199 9.94754C25.3866 9.86732 25.671 10.0189 25.7599 10.2863C25.8399 10.5537 25.6888 10.8389 25.4221 10.928C25.3421 10.9548 25.2621 10.9815 25.1821 10.9993C25.1288 11.0172 25.0755 11.0261 25.0221 11.0261ZM41.1821 11.5876C41.1199 11.5876 41.0577 11.5787 40.9955 11.552C40.9155 11.5252 40.8444 11.4896 40.7644 11.4628C40.4977 11.3648 40.3732 11.0706 40.471 10.8032C40.5688 10.5358 40.871 10.411 41.1288 10.5091C41.2088 10.5447 41.2888 10.5715 41.3688 10.6071C41.6266 10.7141 41.7599 11.0082 41.6532 11.2757C41.5732 11.4628 41.3866 11.5876 41.1821 11.5876ZM23.3421 11.6322C23.1377 11.6322 22.951 11.5074 22.871 11.3113C22.7643 11.0528 22.8888 10.7498 23.1555 10.6428C23.2355 10.6071 23.3155 10.5804 23.3955 10.5447C23.6621 10.4467 23.9555 10.5715 24.0532 10.8389C24.151 11.1063 24.0266 11.4004 23.7599 11.4985C23.6799 11.5252 23.6088 11.5609 23.5288 11.5876C23.4666 11.6144 23.4043 11.6322 23.3421 11.6322ZM42.8177 12.3007C42.7466 12.3007 42.6666 12.2829 42.5955 12.2472C42.5243 12.2116 42.4444 12.1759 42.3732 12.1403C42.1155 12.0244 42.0088 11.7124 42.1244 11.4628C42.2399 11.2043 42.551 11.0974 42.7999 11.2133C42.8799 11.2489 42.9599 11.2846 43.031 11.3202C43.2799 11.445 43.3866 11.7481 43.271 12.0066C43.1821 12.1937 43.0043 12.3007 42.8177 12.3007ZM21.7066 12.3542C21.5199 12.3542 21.3332 12.2472 21.2443 12.0689C21.1199 11.8105 21.2266 11.5074 21.4755 11.3826C21.5555 11.347 21.6355 11.3024 21.7066 11.2667C21.9643 11.1419 22.2666 11.2578 22.391 11.5074C22.5155 11.7659 22.3999 12.0689 22.151 12.1937C22.0799 12.2294 21.9999 12.265 21.9288 12.3007C21.8577 12.3364 21.7777 12.3542 21.7066 12.3542ZM44.391 13.1386C44.3021 13.1386 44.2132 13.1207 44.1332 13.0673C44.0621 13.0227 43.991 12.987 43.9199 12.9425C43.671 12.7999 43.591 12.4879 43.7243 12.2472C43.8577 11.9976 44.1777 11.9174 44.4177 12.0511C44.4888 12.0957 44.5688 12.1403 44.6399 12.1759C44.8799 12.3185 44.9688 12.6305 44.8266 12.8712C44.7377 13.0494 44.5688 13.1386 44.391 13.1386ZM20.1332 13.201C19.9555 13.201 19.7866 13.1118 19.6888 12.9514C19.5466 12.7107 19.6266 12.3898 19.8755 12.2472C19.9466 12.2027 20.0266 12.1581 20.0977 12.1135C20.3466 11.9709 20.6577 12.06 20.791 12.3007C20.9332 12.5503 20.8443 12.8622 20.6043 12.9959C20.5332 13.0405 20.4621 13.0762 20.391 13.1207C20.3021 13.1831 20.2132 13.201 20.1332 13.201ZM45.9021 14.0923C45.8044 14.0923 45.7066 14.0656 45.6177 14.0032C45.5466 13.9586 45.4755 13.914 45.4132 13.8606C45.1821 13.7001 45.111 13.3881 45.271 13.1475C45.4221 12.9157 45.7421 12.8444 45.9821 13.0049C46.0532 13.0494 46.1244 13.1029 46.1955 13.1475C46.4266 13.3079 46.4888 13.6288 46.3288 13.8606C46.2221 14.0121 46.0621 14.0923 45.9021 14.0923ZM18.6221 14.1636C18.4621 14.1636 18.3021 14.0834 18.2043 13.9408C18.0443 13.709 18.1066 13.3881 18.3377 13.2277C18.4088 13.1742 18.4799 13.1297 18.551 13.0762C18.7821 12.9157 19.1021 12.9781 19.2621 13.2188C19.4221 13.4594 19.3599 13.7714 19.1199 13.9319C19.0488 13.9764 18.9777 14.0299 18.9155 14.0745C18.8177 14.1369 18.7199 14.1636 18.6221 14.1636ZM47.3421 15.153C47.2355 15.153 47.1199 15.1174 47.0221 15.046C46.9599 14.9926 46.8888 14.9391 46.8266 14.8945C46.6044 14.7252 46.5599 14.3954 46.7377 14.1725C46.9066 13.9497 47.2355 13.9051 47.4577 14.0834C47.5288 14.1369 47.591 14.1904 47.6621 14.2438C47.8843 14.4221 47.9199 14.743 47.7421 14.9658C47.6355 15.0817 47.4932 15.153 47.3421 15.153ZM17.191 15.2332C17.0399 15.2332 16.8888 15.1708 16.791 15.046C16.6132 14.8232 16.6488 14.5023 16.871 14.3241C16.9421 14.2706 17.0043 14.2171 17.0755 14.1636C17.2977 13.9943 17.6177 14.0299 17.7955 14.2527C17.9732 14.4756 17.9288 14.7965 17.7066 14.9747C17.6443 15.0282 17.5732 15.0817 17.511 15.1263C17.4132 15.1976 17.2977 15.2332 17.191 15.2332ZM48.6932 16.3207C48.5688 16.3207 48.4444 16.2761 48.3466 16.187C48.2844 16.1335 48.2221 16.0711 48.1599 16.0176C47.9466 15.8304 47.9377 15.5095 48.1244 15.2956C48.311 15.0817 48.6399 15.0728 48.8444 15.26C48.9066 15.3224 48.9777 15.3758 49.0399 15.4382C49.2444 15.6343 49.2621 15.9552 49.0666 16.1602C48.9688 16.2583 48.8355 16.3207 48.6932 16.3207ZM15.831 16.4009C15.6977 16.4009 15.5555 16.3474 15.4577 16.2404C15.2621 16.0354 15.2799 15.7056 15.4843 15.5185C15.5466 15.4561 15.6088 15.4026 15.6799 15.3402C15.8843 15.153 16.2132 15.1619 16.3999 15.3758C16.5866 15.5809 16.5777 15.9106 16.3643 16.0978C16.3021 16.1513 16.2399 16.2137 16.1777 16.2672C16.0888 16.3563 15.9555 16.4009 15.831 16.4009ZM49.9644 17.5775C49.831 17.5775 49.6888 17.524 49.591 17.417C49.5377 17.3546 49.4755 17.2922 49.4221 17.2298C49.2266 17.0248 49.2355 16.7039 49.4399 16.5079C49.6444 16.3118 49.9644 16.3207 50.1599 16.5257C50.2221 16.5881 50.2755 16.6505 50.3377 16.7129C50.5332 16.9179 50.5243 17.2477 50.311 17.4349C50.2132 17.5329 50.0888 17.5775 49.9644 17.5775ZM14.5688 17.6755C14.4443 17.6755 14.3199 17.6309 14.2221 17.5418C14.0177 17.3457 13.9999 17.0248 14.1955 16.8198C14.2577 16.7574 14.311 16.695 14.3732 16.6326C14.5688 16.4276 14.8888 16.4187 15.0932 16.6148C15.2977 16.8109 15.3066 17.1318 15.111 17.3368C15.0577 17.3992 14.9955 17.4616 14.9421 17.524C14.8443 17.6131 14.711 17.6755 14.5688 17.6755ZM51.1377 18.9323C50.9866 18.9323 50.8444 18.8699 50.7377 18.7451C50.6844 18.6827 50.631 18.6114 50.5777 18.549C50.3999 18.3262 50.4266 18.0053 50.6488 17.827C50.8621 17.6488 51.191 17.6755 51.3688 17.8984C51.4221 17.9697 51.4755 18.0321 51.5377 18.1034C51.7155 18.3262 51.6799 18.6471 51.4577 18.8254C51.3688 18.8877 51.2532 18.9323 51.1377 18.9323ZM13.4043 19.0304C13.2977 19.0304 13.1821 18.9947 13.0843 18.9234C12.8621 18.7451 12.8266 18.4242 13.0043 18.2014C13.0577 18.1301 13.111 18.0677 13.1643 17.9964C13.3421 17.7736 13.6621 17.7468 13.8843 17.9251C14.1066 18.1034 14.1332 18.4242 13.9555 18.6471C13.9021 18.7095 13.8488 18.7808 13.7955 18.8432C13.7066 18.968 13.5555 19.0304 13.4043 19.0304ZM52.2132 20.3674C52.0532 20.3674 51.8932 20.2872 51.7955 20.1445C51.751 20.0732 51.6977 20.0108 51.6532 19.9395C51.4932 19.7078 51.5466 19.3869 51.7777 19.2265C52.0088 19.066 52.3288 19.1195 52.4888 19.3512C52.5421 19.4226 52.5866 19.4939 52.6399 19.5652C52.7999 19.7969 52.7466 20.1178 52.5066 20.2782C52.4088 20.3317 52.311 20.3674 52.2132 20.3674ZM12.3466 20.4654C12.2488 20.4654 12.1421 20.4387 12.0621 20.3763C11.831 20.2159 11.7688 19.895 11.9288 19.6632C11.9732 19.5919 12.0266 19.5206 12.0799 19.4493C12.2399 19.2175 12.5599 19.1641 12.791 19.3245C13.0221 19.4849 13.0755 19.8058 12.9155 20.0376C12.871 20.1089 12.8177 20.1713 12.7732 20.2426C12.6666 20.3941 12.5066 20.4654 12.3466 20.4654ZM53.1732 21.8738C52.9955 21.8738 52.8266 21.7846 52.7377 21.6242C52.6932 21.5529 52.6488 21.4816 52.6044 21.4103C52.4621 21.1696 52.5332 20.8576 52.7821 20.7061C53.0221 20.5635 53.3332 20.6348 53.4844 20.8844C53.5288 20.9557 53.5732 21.0359 53.6177 21.1072C53.7599 21.3479 53.6799 21.6598 53.4399 21.8114C53.351 21.847 53.2621 21.8738 53.1732 21.8738ZM11.3955 21.9807C11.3066 21.9807 11.2177 21.9629 11.1377 21.9094C10.8977 21.7668 10.8088 21.4548 10.951 21.2052C10.9955 21.1339 11.0399 21.0537 11.0843 20.9824C11.2266 20.7417 11.5377 20.6615 11.7866 20.8041C12.0266 20.9468 12.1066 21.2587 11.9643 21.5083C11.9199 21.5796 11.8755 21.6509 11.8399 21.7222C11.7421 21.8916 11.5643 21.9807 11.3955 21.9807ZM54.0266 23.4514C53.8399 23.4514 53.6532 23.3445 53.5644 23.1662C53.5288 23.0949 53.4932 23.0147 53.4488 22.9434C53.3244 22.6938 53.4221 22.3818 53.671 22.257C53.9199 22.1322 54.231 22.2303 54.3555 22.4799C54.391 22.5601 54.4355 22.6314 54.471 22.7116C54.5955 22.9612 54.4888 23.2732 54.2399 23.398C54.1777 23.4336 54.0977 23.4514 54.0266 23.4514ZM10.551 23.5584C10.471 23.5584 10.3999 23.5406 10.3288 23.5049C10.0799 23.3801 9.97324 23.0771 10.0888 22.8186C10.1243 22.7384 10.1688 22.6581 10.2043 22.5868C10.3288 22.3373 10.6399 22.2303 10.8888 22.3551C11.1377 22.4799 11.2443 22.7918 11.1199 23.0414C11.0843 23.1127 11.0488 23.1929 11.0132 23.2643C10.9243 23.4514 10.7377 23.5584 10.551 23.5584ZM54.7555 25.0915C54.551 25.0915 54.3644 24.9667 54.2844 24.7706C54.2577 24.6904 54.2221 24.6191 54.1866 24.5389C54.0799 24.2804 54.2044 23.9773 54.4621 23.8704C54.7199 23.7634 55.0221 23.8882 55.1288 24.1467C55.1644 24.2269 55.1999 24.3071 55.2266 24.3874C55.3332 24.6458 55.2088 24.9489 54.9421 25.0559C54.8799 25.0737 54.8177 25.0915 54.7555 25.0915ZM9.83101 25.1985C9.76879 25.1985 9.70657 25.1896 9.64435 25.1628C9.37768 25.0559 9.25324 24.7617 9.3599 24.4943C9.39546 24.4141 9.42213 24.3339 9.45768 24.2536C9.56435 23.9952 9.86657 23.8704 10.1243 23.9773C10.3821 24.0843 10.5066 24.3874 10.3999 24.6458C10.3732 24.7261 10.3377 24.7974 10.311 24.8776C10.2221 25.0737 10.0355 25.1985 9.83101 25.1985ZM55.3599 26.7762C55.1466 26.7762 54.9421 26.6335 54.871 26.4196C54.8444 26.3394 54.8177 26.2592 54.791 26.179C54.7021 25.9116 54.8444 25.6174 55.1199 25.5283C55.3866 25.4391 55.6799 25.5818 55.7688 25.8492C55.7955 25.9294 55.8221 26.0185 55.8488 26.0987C55.9377 26.3661 55.7866 26.6514 55.5199 26.7405C55.4666 26.7672 55.4132 26.7762 55.3599 26.7762ZM9.23546 26.8831C9.18212 26.8831 9.13768 26.8742 9.08435 26.8564C8.81768 26.7672 8.66657 26.482 8.74657 26.2146C8.77324 26.1344 8.7999 26.0453 8.82657 25.965C8.91546 25.6976 9.1999 25.5461 9.46657 25.6352C9.73324 25.7244 9.88435 26.0096 9.79546 26.277C9.76879 26.3572 9.74213 26.4374 9.71546 26.5177C9.65324 26.7405 9.44879 26.8831 9.23546 26.8831ZM55.8399 28.5054C55.6088 28.5054 55.3955 28.3449 55.3421 28.1132C55.3244 28.033 55.3066 27.9527 55.2799 27.8725C55.2088 27.5962 55.3777 27.3199 55.6532 27.2486C55.9288 27.1773 56.2044 27.3466 56.2755 27.6229C56.2932 27.7032 56.3199 27.7923 56.3377 27.8725C56.3999 28.1488 56.231 28.4251 55.9644 28.4875C55.9199 28.4965 55.8755 28.5054 55.8399 28.5054ZM8.76435 28.6123C8.72879 28.6123 8.68435 28.6123 8.64879 28.6034C8.37324 28.541 8.20435 28.2647 8.26657 27.9884C8.28435 27.8993 8.31101 27.819 8.32879 27.7388C8.3999 27.4625 8.67546 27.2931 8.95101 27.3644C9.22657 27.4358 9.39546 27.7121 9.32435 27.9795C9.30657 28.0597 9.2799 28.1399 9.26212 28.2201C9.1999 28.4519 8.99546 28.6123 8.76435 28.6123ZM56.1866 30.2613C55.9377 30.2613 55.7244 30.0831 55.6799 29.8335C55.671 29.7533 55.6532 29.673 55.6355 29.5839C55.591 29.3076 55.7777 29.0402 56.0532 28.9956C56.3288 28.951 56.5955 29.1382 56.6399 29.4145C56.6577 29.5037 56.6666 29.5839 56.6844 29.673C56.7288 29.9494 56.5421 30.2168 56.2577 30.2613C56.2488 30.2524 56.2132 30.2613 56.1866 30.2613ZM8.41768 30.3683C8.39101 30.3683 8.36435 30.3683 8.33768 30.3594C8.06212 30.3148 7.86657 30.0563 7.91101 29.7711C7.92879 29.6819 7.93768 29.6017 7.95546 29.5126C7.9999 29.2363 8.26657 29.0491 8.54212 29.0937C8.81768 29.1382 9.00435 29.4056 8.9599 29.6819C8.95101 29.7622 8.93324 29.8424 8.91546 29.9315C8.88879 30.19 8.66657 30.3683 8.41768 30.3683ZM56.4088 32.0351C56.1421 32.0351 55.9199 31.8301 55.9021 31.5716C55.8932 31.4914 55.8844 31.4022 55.8844 31.322C55.8577 31.0368 56.0621 30.7872 56.3466 30.7605C56.631 30.7337 56.8799 30.9387 56.9066 31.224C56.9155 31.3131 56.9244 31.3933 56.9332 31.4825C56.9599 31.7677 56.7466 32.0084 56.471 32.0351C56.4355 32.0351 56.4266 32.0351 56.4088 32.0351ZM8.20435 32.1421C8.18657 32.1421 8.17768 32.1421 8.1599 32.1421C7.87546 32.1153 7.67101 31.8747 7.68879 31.5894C7.69768 31.5003 7.70657 31.4201 7.71546 31.3309C7.75101 31.0457 7.9999 30.8407 8.27546 30.8674C8.5599 30.8942 8.76435 31.1438 8.73768 31.4201C8.72879 31.5003 8.7199 31.5894 8.7199 31.6696C8.69324 31.946 8.47101 32.1421 8.20435 32.1421ZM56.4977 33.8267C56.2221 33.8267 55.991 33.6039 55.991 33.3186C55.991 33.2384 55.991 33.1493 55.9821 33.0691C55.9732 32.7838 56.1955 32.5521 56.4799 32.5432C56.4888 32.5432 56.4888 32.5432 56.4888 32.5432C56.7644 32.5432 56.9955 32.766 56.9955 33.0423C56.9955 33.1315 56.9955 33.2117 57.0043 33.3008C57.0132 33.586 56.791 33.8178 56.4977 33.8267ZM8.12435 33.9337C7.8399 33.9337 7.60879 33.7019 7.61768 33.4167C7.61768 33.3276 7.61768 33.2384 7.61768 33.1582C7.62657 32.873 7.85768 32.6501 8.13324 32.659C8.41768 32.668 8.6399 32.8997 8.63101 33.176C8.63101 33.2562 8.63101 33.3454 8.63101 33.4256C8.63101 33.7108 8.40879 33.9337 8.12435 33.9337ZM56.4621 35.6183C56.4532 35.6183 56.4444 35.6183 56.4355 35.6183C56.151 35.6005 55.9377 35.3598 55.9555 35.0746C55.9644 34.9944 55.9644 34.9052 55.9644 34.825C55.9821 34.5398 56.2132 34.3259 56.4977 34.3348C56.7821 34.3526 56.9955 34.5844 56.9866 34.8696C56.9777 34.9587 56.9777 35.0389 56.9688 35.1281C56.951 35.4044 56.7288 35.6183 56.4621 35.6183ZM8.17768 35.7253C7.91101 35.7253 7.68879 35.5203 7.67101 35.2439C7.66212 35.1548 7.66212 35.0746 7.65324 34.9855C7.63546 34.7002 7.85768 34.4596 8.13324 34.4507C8.41768 34.4328 8.65768 34.6557 8.66657 34.932C8.66657 35.0122 8.67546 35.1013 8.68435 35.1816C8.70212 35.4668 8.48879 35.7074 8.20435 35.7253C8.19546 35.7253 8.18657 35.7253 8.17768 35.7253ZM56.2932 37.401C56.2666 37.401 56.2488 37.401 56.2221 37.3921C55.9466 37.3564 55.751 37.0979 55.7866 36.8127C55.7955 36.7325 55.8044 36.6434 55.8221 36.5631C55.8577 36.2868 56.1155 36.0818 56.391 36.1175C56.6755 36.1531 56.871 36.4116 56.8355 36.6879C56.8266 36.7771 56.8177 36.8573 56.7999 36.9464C56.7644 37.2138 56.5421 37.401 56.2932 37.401ZM8.35546 37.508C8.10657 37.508 7.88435 37.3208 7.84879 37.0623C7.8399 36.9732 7.82212 36.8929 7.81324 36.8038C7.77768 36.5275 7.97324 36.269 8.25768 36.2333C8.53324 36.1977 8.79101 36.3938 8.82657 36.679C8.83546 36.7592 8.84435 36.8484 8.86212 36.9286C8.89768 37.2049 8.70212 37.4634 8.42657 37.508C8.3999 37.508 8.37324 37.508 8.35546 37.508ZM55.991 39.1659C55.9555 39.1659 55.9199 39.1659 55.8844 39.157C55.6088 39.1035 55.431 38.8272 55.4932 38.5508C55.511 38.4706 55.5288 38.3904 55.5466 38.3102C55.5999 38.0339 55.8755 37.8556 56.151 37.9091C56.4266 37.9626 56.6044 38.23 56.551 38.5152C56.5332 38.6043 56.5155 38.6845 56.4977 38.7737C56.4355 38.9965 56.2221 39.1659 55.991 39.1659ZM8.66657 39.2728C8.42657 39.2728 8.22212 39.1035 8.16879 38.8628C8.15101 38.7737 8.13324 38.6935 8.11546 38.6043C8.06212 38.328 8.2399 38.0606 8.51546 37.9982C8.79101 37.9358 9.05768 38.123 9.1199 38.3993C9.13768 38.4795 9.15546 38.5598 9.17324 38.6489C9.23546 38.9252 9.05768 39.2015 8.78212 39.255C8.73768 39.2639 8.70212 39.2728 8.66657 39.2728ZM55.5555 40.904C55.511 40.904 55.4577 40.8951 55.4132 40.8862C55.1377 40.8059 54.9866 40.5207 55.0666 40.2533C55.0932 40.1731 55.111 40.0929 55.1377 40.0126C55.2088 39.7363 55.4932 39.5759 55.7688 39.6561C56.0444 39.7274 56.2044 40.0126 56.1244 40.289C56.0977 40.3692 56.0799 40.4583 56.0532 40.5385C55.9821 40.7525 55.7777 40.904 55.5555 40.904ZM9.10212 41.002C8.8799 41.002 8.67546 40.8594 8.61324 40.6366C8.58657 40.5564 8.56879 40.4672 8.54212 40.387C8.46212 40.1107 8.62212 39.8344 8.89768 39.7542C9.17324 39.6739 9.44879 39.8344 9.52879 40.1107C9.55546 40.1909 9.57324 40.2711 9.5999 40.3514C9.6799 40.6188 9.5199 40.904 9.25324 40.9842C9.1999 41.002 9.14657 41.002 9.10212 41.002ZM54.9955 42.5976C54.9332 42.5976 54.8799 42.5886 54.8177 42.5619C54.551 42.4639 54.4177 42.1697 54.5155 41.9023C54.5421 41.8221 54.5777 41.7419 54.6044 41.6706C54.7021 41.4031 54.9955 41.2694 55.2621 41.3586C55.5288 41.4566 55.6621 41.7508 55.5732 42.0182C55.5466 42.0984 55.511 42.1786 55.4844 42.2678C55.3955 42.4728 55.2088 42.5976 54.9955 42.5976ZM9.67101 42.7045C9.46657 42.7045 9.27101 42.5797 9.19101 42.3747C9.16435 42.2945 9.12879 42.2143 9.10212 42.1251C9.00435 41.8577 9.14657 41.5636 9.40435 41.4655C9.67101 41.3675 9.96435 41.5101 10.0621 41.7686C10.0888 41.8488 10.1243 41.929 10.151 42.0093C10.2488 42.2767 10.1155 42.5708 9.84879 42.6689C9.78657 42.6956 9.73324 42.7045 9.67101 42.7045ZM54.311 44.2555C54.2399 44.2555 54.1688 44.2376 54.0977 44.2109C53.8399 44.095 53.7244 43.792 53.8488 43.5335C53.8844 43.4622 53.9199 43.3819 53.9555 43.3106C54.071 43.0521 54.3732 42.9363 54.631 43.0521C54.8888 43.168 55.0044 43.4711 54.8888 43.7296C54.8532 43.8098 54.8177 43.89 54.7821 43.9702C54.6932 44.1396 54.5066 44.2555 54.311 44.2555ZM10.3643 44.3624C10.1688 44.3624 9.99101 44.2555 9.90213 44.0683C9.86657 43.9881 9.83101 43.9078 9.79546 43.8276C9.6799 43.5691 9.79546 43.2661 10.0532 43.1502C10.311 43.0343 10.6132 43.1502 10.7288 43.4087C10.7643 43.4889 10.7999 43.5602 10.8355 43.6404C10.951 43.8989 10.8443 44.202 10.5866 44.3179C10.5066 44.3446 10.4355 44.3624 10.3643 44.3624ZM53.511 45.851C53.431 45.851 53.3421 45.8331 53.2621 45.7886C53.0132 45.6549 52.9244 45.3429 53.0577 45.0933C53.0932 45.022 53.1377 44.9507 53.1732 44.8705C53.3066 44.6209 53.6177 44.5229 53.8666 44.6566C54.1155 44.7903 54.2044 45.1022 54.071 45.3518C54.0266 45.432 53.991 45.5033 53.9466 45.5836C53.8666 45.7529 53.6888 45.851 53.511 45.851ZM11.1732 45.9579C10.9955 45.9579 10.8177 45.8599 10.7288 45.6905C10.6843 45.6103 10.6488 45.539 10.6043 45.4588C10.471 45.2092 10.5599 44.8972 10.8088 44.7635C11.0577 44.6298 11.3688 44.719 11.5021 44.9685C11.5377 45.0398 11.5821 45.1201 11.6266 45.1914C11.7599 45.4409 11.6799 45.7529 11.431 45.8866C11.3421 45.9401 11.2621 45.9579 11.1732 45.9579ZM52.5955 47.3841C52.4977 47.3841 52.3999 47.3573 52.3199 47.3039C52.0799 47.1523 52.0177 46.8314 52.1688 46.5908C52.2132 46.5195 52.2577 46.4482 52.3021 46.3858C52.4532 46.1451 52.7732 46.0738 53.0044 46.2253C53.2444 46.3769 53.3155 46.6977 53.1644 46.9295C53.1199 47.0008 53.0666 47.081 53.0221 47.1523C52.9244 47.3039 52.7644 47.3841 52.5955 47.3841ZM12.1066 47.491C11.9377 47.491 11.7777 47.4108 11.6799 47.2593C11.6355 47.188 11.5821 47.1167 11.5377 47.0365C11.3866 46.7958 11.4488 46.4838 11.6888 46.3323C11.9288 46.1808 12.2399 46.2521 12.391 46.4838C12.4355 46.5551 12.4799 46.6264 12.5243 46.6977C12.6755 46.9295 12.6132 47.2504 12.3821 47.4108C12.2932 47.4643 12.1955 47.491 12.1066 47.491ZM51.5644 48.8459C51.4577 48.8459 51.351 48.8102 51.2532 48.7389C51.031 48.5696 50.9866 48.2487 51.1555 48.0169C51.2088 47.9456 51.2532 47.8832 51.3066 47.8208C51.4755 47.5891 51.7955 47.5445 52.0177 47.7139C52.2399 47.8832 52.2932 48.2041 52.1244 48.427C52.071 48.4983 52.0177 48.5696 51.9644 48.632C51.8755 48.7746 51.7155 48.8459 51.5644 48.8459ZM13.1377 48.9529C12.9866 48.9529 12.8355 48.8815 12.7288 48.7568C12.6755 48.6854 12.6221 48.6141 12.5688 48.5517C12.3999 48.3289 12.4443 48.008 12.6666 47.8387C12.8888 47.6693 13.2088 47.7139 13.3866 47.9367C13.4399 48.008 13.4843 48.0704 13.5377 48.1328C13.7066 48.3556 13.671 48.6765 13.4488 48.8548C13.3599 48.9172 13.2532 48.9529 13.1377 48.9529ZM50.4355 50.2275C50.311 50.2275 50.1955 50.1829 50.0977 50.1027C49.8844 49.9155 49.8666 49.5946 50.0532 49.3807C50.1066 49.3183 50.1599 49.2559 50.2221 49.1935C50.4088 48.9796 50.7288 48.9529 50.9421 49.14C51.1555 49.3272 51.1821 49.6481 50.9955 49.862C50.9421 49.9244 50.8799 49.9957 50.8266 50.0581C50.711 50.174 50.5688 50.2275 50.4355 50.2275ZM14.2843 50.3255C14.1421 50.3255 14.0088 50.2631 13.9021 50.1562C13.8399 50.0938 13.7866 50.0225 13.7332 49.9601C13.5466 49.7461 13.5732 49.4253 13.7777 49.2381C13.991 49.0509 14.311 49.0687 14.4977 49.2826C14.551 49.345 14.6043 49.4074 14.6666 49.4698C14.8532 49.6838 14.8355 50.0046 14.6221 50.1918C14.5243 50.281 14.3999 50.3255 14.2843 50.3255ZM49.1999 51.5288C49.0666 51.5288 48.9332 51.4754 48.8355 51.3773C48.6399 51.1723 48.6399 50.8514 48.8444 50.6553C48.9066 50.6018 48.9599 50.5394 49.0221 50.4771C49.2177 50.281 49.5466 50.281 49.7421 50.4771C49.9377 50.6731 49.9377 51.0029 49.7421 51.199C49.6799 51.2614 49.6177 51.3238 49.5555 51.3862C49.4577 51.4754 49.3244 51.5288 49.1999 51.5288ZM15.5199 51.618C15.3955 51.618 15.2621 51.5734 15.1643 51.4754C15.1021 51.413 15.0399 51.3506 14.9777 51.2971C14.7732 51.101 14.7732 50.7712 14.9688 50.5751C15.1643 50.3701 15.4932 50.3701 15.6888 50.5662C15.751 50.6286 15.8043 50.6821 15.8666 50.7445C16.071 50.9406 16.0799 51.2614 15.8843 51.4664C15.7866 51.5645 15.6532 51.618 15.5199 51.618ZM47.8755 52.7322C47.7332 52.7322 47.5821 52.6698 47.4843 52.5539C47.2977 52.34 47.3332 52.0191 47.5466 51.8319C47.6088 51.7784 47.671 51.7249 47.7421 51.6715C47.9555 51.4843 48.2755 51.511 48.4621 51.7249C48.6488 51.9389 48.6221 52.2597 48.4088 52.4469C48.3466 52.5004 48.2755 52.5628 48.2132 52.6163C48.1066 52.6876 47.991 52.7322 47.8755 52.7322ZM16.8532 52.8124C16.7377 52.8124 16.6221 52.7767 16.5243 52.6965C16.4532 52.643 16.391 52.5895 16.3288 52.5271C16.1155 52.34 16.0888 52.0191 16.2666 51.8052C16.4532 51.5912 16.7732 51.5645 16.9866 51.7517C17.0488 51.8052 17.111 51.8586 17.1821 51.9121C17.3955 52.0904 17.431 52.4113 17.2443 52.6341C17.1377 52.75 16.9955 52.8124 16.8532 52.8124ZM46.471 53.8285C46.311 53.8285 46.1599 53.7572 46.0532 53.6146C45.8844 53.3828 45.9377 53.062 46.1688 52.9015C46.2399 52.848 46.3021 52.8035 46.3732 52.75C46.6044 52.5806 46.9244 52.6341 47.0844 52.8569C47.2532 53.0887 47.1999 53.4007 46.9777 53.57C46.9066 53.6235 46.8355 53.677 46.7644 53.7216C46.6755 53.8018 46.5688 53.8285 46.471 53.8285ZM18.2666 53.9087C18.1599 53.9087 18.0621 53.882 17.9732 53.8107C17.9021 53.7572 17.831 53.7126 17.7599 53.6592C17.5288 53.4898 17.4843 53.1689 17.6532 52.9461C17.8221 52.7143 18.1421 52.6698 18.3643 52.8391C18.4266 52.8926 18.4977 52.9372 18.5688 52.9907C18.7999 53.1511 18.8532 53.472 18.6843 53.7037C18.5777 53.8285 18.4266 53.9087 18.2666 53.9087ZM44.9777 54.8268C44.8088 54.8268 44.6399 54.7377 44.5421 54.5862C44.391 54.3455 44.471 54.0335 44.711 53.882C44.7821 53.8374 44.8532 53.7929 44.9244 53.7483C45.1644 53.5968 45.4755 53.6681 45.6266 53.9087C45.7777 54.1494 45.7066 54.4614 45.4666 54.6129C45.3955 54.6575 45.3155 54.702 45.2444 54.7466C45.1644 54.8001 45.0755 54.8268 44.9777 54.8268ZM19.751 54.8892C19.6621 54.8892 19.5732 54.8625 19.4843 54.8179C19.4132 54.7733 19.3332 54.7288 19.2621 54.6842C19.0221 54.5327 18.951 54.2207 19.1021 53.98C19.2532 53.7394 19.5643 53.6681 19.8043 53.8196C19.8755 53.8642 19.9466 53.9087 20.0177 53.9533C20.2577 54.0959 20.3377 54.4168 20.1866 54.6575C20.0888 54.809 19.9288 54.8892 19.751 54.8892ZM43.4221 55.7093C43.2355 55.7093 43.0577 55.6112 42.9688 55.4329C42.8444 55.1834 42.9421 54.8714 43.191 54.7466C43.2621 54.7109 43.3421 54.6664 43.4132 54.6307C43.6621 54.497 43.9732 54.5951 44.1066 54.8446C44.2399 55.0942 44.1421 55.4062 43.8932 55.5399C43.8132 55.5845 43.7421 55.6201 43.6621 55.6647C43.5821 55.6914 43.5021 55.7093 43.4221 55.7093ZM21.3066 55.7627C21.2266 55.7627 21.1466 55.7449 21.0755 55.7093C20.9955 55.6736 20.9243 55.629 20.8443 55.5934C20.5955 55.4597 20.4977 55.1477 20.631 54.8981C20.7643 54.6486 21.0755 54.5505 21.3243 54.6842C21.3955 54.7199 21.4666 54.7644 21.5466 54.8001C21.7955 54.9338 21.9021 55.2368 21.7688 55.4864C21.671 55.6647 21.4932 55.7627 21.3066 55.7627ZM41.8043 56.4758C41.6088 56.4758 41.4132 56.3599 41.3332 56.1638C41.2266 55.9053 41.3421 55.6023 41.5999 55.4953C41.6799 55.4597 41.751 55.4329 41.831 55.3973C42.0888 55.2814 42.391 55.3973 42.5066 55.6558C42.6221 55.9143 42.4977 56.2173 42.2399 56.3332C42.1599 56.3689 42.0799 56.4045 41.9999 56.4402C41.9466 56.4669 41.8755 56.4758 41.8043 56.4758ZM22.9243 56.5204C22.8532 56.5204 22.791 56.5115 22.7288 56.4847C22.6488 56.4491 22.5688 56.4134 22.4888 56.3778C22.231 56.2619 22.1155 55.9588 22.2221 55.7003C22.3377 55.4419 22.6399 55.326 22.8977 55.4329C22.9688 55.4686 23.0488 55.4953 23.1288 55.531C23.3866 55.6379 23.511 55.941 23.4043 56.1995C23.3155 56.4045 23.1288 56.5204 22.9243 56.5204ZM40.1332 57.1176C39.9199 57.1176 39.7243 56.9839 39.6532 56.77C39.5644 56.5026 39.7066 56.2084 39.9732 56.1193C40.0532 56.0925 40.1332 56.0658 40.2132 56.0391C40.4799 55.9499 40.7732 56.0836 40.8621 56.351C40.9599 56.6184 40.8177 56.9126 40.551 57.0017C40.471 57.0284 40.3821 57.0552 40.3021 57.0908C40.2488 57.1087 40.1955 57.1176 40.1332 57.1176ZM24.5955 57.1532C24.5421 57.1532 24.4888 57.1443 24.4355 57.1265C24.3555 57.0998 24.2755 57.073 24.1866 57.0374C23.9199 56.9482 23.7777 56.6541 23.8755 56.3867C23.9732 56.1193 24.2577 55.9767 24.5243 56.0747C24.6043 56.1014 24.6843 56.1282 24.7643 56.1549C25.031 56.2441 25.1732 56.5382 25.0843 56.8056C25.0043 57.0195 24.8088 57.1532 24.5955 57.1532ZM38.4266 57.6346C38.1955 57.6346 37.991 57.483 37.9288 57.2513C37.8577 56.975 38.0177 56.6986 38.2932 56.6273C38.3732 56.6095 38.4532 56.5828 38.5332 56.5649C38.8088 56.4936 39.0844 56.6541 39.1644 56.9215C39.2355 57.1978 39.0755 57.4741 38.8088 57.5454C38.7288 57.5722 38.6399 57.59 38.5599 57.6167C38.5155 57.6256 38.471 57.6346 38.4266 57.6346ZM26.311 57.6613C26.2666 57.6613 26.231 57.6524 26.1866 57.6435C26.0977 57.6256 26.0177 57.5989 25.9377 57.5811C25.6621 57.5098 25.5021 57.2245 25.5732 56.9571C25.6443 56.6808 25.9288 56.5204 26.1955 56.5917C26.2755 56.6095 26.3555 56.6363 26.4355 56.6541C26.711 56.7254 26.871 57.0017 26.7999 57.278C26.7377 57.5098 26.5332 57.6613 26.311 57.6613ZM36.6844 58.0178C36.4444 58.0178 36.231 57.8485 36.1866 57.5989C36.1332 57.3226 36.3199 57.0552 36.5955 57.0017C36.6755 56.9839 36.7555 56.975 36.8444 56.9571C37.1199 56.9037 37.3866 57.0819 37.4399 57.3582C37.4932 57.6346 37.3155 57.902 37.0399 57.9554C36.951 57.9733 36.871 57.9911 36.7821 58.0089C36.7466 58.0178 36.711 58.0178 36.6844 58.0178ZM28.0532 58.0446C28.0266 58.0446 27.991 58.0446 27.9643 58.0357C27.8755 58.0178 27.7955 58.0089 27.7066 57.9911C27.431 57.9376 27.2443 57.6702 27.2977 57.3939C27.351 57.1176 27.6177 56.9304 27.8932 56.9839C27.9732 57.0017 28.0532 57.0106 28.1421 57.0284C28.4177 57.0819 28.6043 57.3404 28.5599 57.6256C28.5066 57.8663 28.2932 58.0446 28.0532 58.0446ZM34.9155 58.2763C34.6577 58.2763 34.4355 58.0802 34.4088 57.8217C34.3821 57.5365 34.5777 57.2869 34.8621 57.2602C34.9421 57.2513 35.031 57.2424 35.111 57.2335C35.3866 57.1978 35.6444 57.4028 35.6799 57.6791C35.7155 57.9644 35.511 58.2139 35.2355 58.2496C35.1466 58.2585 35.0666 58.2674 34.9777 58.2763C34.951 58.2763 34.9332 58.2763 34.9155 58.2763ZM29.8221 58.2852C29.8043 58.2852 29.7866 58.2852 29.7688 58.2852C29.6799 58.2763 29.5999 58.2674 29.511 58.2585C29.2266 58.2318 29.031 57.9733 29.0577 57.697C29.0843 57.4117 29.3421 57.2156 29.6177 57.2424C29.6977 57.2513 29.7866 57.2602 29.8666 57.2691C30.151 57.2958 30.3555 57.5454 30.3199 57.8307C30.3021 58.0891 30.0799 58.2852 29.8221 58.2852ZM33.1288 58.4011C32.8532 58.4011 32.631 58.1783 32.6221 57.902C32.6132 57.6167 32.8355 57.385 33.1199 57.3761C33.1999 57.3761 33.2888 57.3672 33.3688 57.3672C33.6532 57.3582 33.8843 57.5722 33.9021 57.8574C33.9199 58.1426 33.6977 58.3744 33.4132 58.3922C33.3244 58.3922 33.2443 58.4011 33.1555 58.4011C33.1466 58.4011 33.1377 58.4011 33.1288 58.4011ZM31.5999 58.4011C31.591 58.4011 31.591 58.4011 31.5821 58.4011C31.4932 58.4011 31.4132 58.3922 31.3244 58.3922C31.0399 58.3833 30.8266 58.1426 30.8355 57.8574C30.8443 57.5722 31.0844 57.3582 31.3688 57.3672C31.4488 57.3672 31.5377 57.3761 31.6177 57.3761C31.9021 57.385 32.1243 57.6167 32.1155 57.902C32.1066 58.1872 31.8755 58.4011 31.5999 58.4011Z" fill="black"/>
<path d="M32.32 1.74703C14.9244 1.74703 0.764444 15.9462 0.764444 33.3898C0.764444 50.8335 14.9244 65.0326 32.32 65.0326C49.7156 65.0326 63.8756 50.8424 63.8756 33.3898C63.8756 15.9462 49.7156 1.74703 32.32 1.74703ZM32.32 65.7991C27.9556 65.7991 23.7244 64.9435 19.7422 63.2499C17.8222 62.4388 15.9822 61.4316 14.2489 60.2639C12.5422 59.1051 10.9244 57.7681 9.46667 56.3063C8 54.8445 6.67556 53.2312 5.52 51.5109C4.35556 49.7817 3.35111 47.9277 2.54222 46.0024C0.853333 42.0091 0 37.7663 0 33.3898C0 29.0133 0.853333 24.7705 2.54222 20.7773C3.35111 18.8609 4.35556 17.0069 5.52 15.2687C6.67556 13.5484 8 11.9351 9.46667 10.4733C10.9333 9.00258 12.5422 7.67448 14.2489 6.51573C15.9733 5.34806 17.8222 4.34084 19.7422 3.52972C23.7244 1.83616 27.9556 0.980469 32.32 0.980469C36.6844 0.980469 40.9156 1.83616 44.8978 3.52972C46.8089 4.34084 48.6578 5.34806 50.3911 6.51573C52.0978 7.67448 53.7156 9.00258 55.1733 10.4733C56.64 11.944 57.9644 13.5574 59.12 15.2687C60.2844 16.998 61.2889 18.852 62.0978 20.7773C63.7867 24.7705 64.64 29.0133 64.64 33.3898C64.64 37.7663 63.7867 42.0091 62.0978 46.0024C61.2889 47.9188 60.2844 49.7728 59.12 51.5109C57.9644 53.2223 56.64 54.8445 55.1733 56.3063C53.7067 57.7681 52.0978 59.1051 50.3911 60.2639C48.6667 61.4316 46.8178 62.4388 44.8978 63.2499C40.9156 64.9435 36.6844 65.7991 32.32 65.7991Z" fill="black"/>
<path d="M77.8401 68.1611H80.3645V72.1187H80.3912C80.7734 71.3343 81.8134 70.8352 82.7379 70.8352C85.3068 70.8352 85.5112 72.707 85.5112 73.8212V78.777H82.9868V75.0423C82.9868 73.9905 83.1023 72.9209 81.7245 72.9209C80.7734 72.9209 80.3645 73.7231 80.3645 74.5699V78.777H77.8401V68.1611Z" fill="#878787"/>
<path d="M87.271 78.777H89.7954V71.058H87.271V78.777ZM87.271 70.0953H89.7954V68.1611H87.271V70.0953Z" fill="#878787"/>
<path d="M96.5869 73.8837C96.5691 73.2331 95.9913 72.7696 95.3513 72.7696C93.9469 72.7696 93.7246 73.9729 93.7246 75.0425C93.7246 76.0408 94.1513 77.0658 95.218 77.0658C96.0891 77.0658 96.5424 76.5578 96.658 75.7377H99.1024C98.8802 77.8057 97.2802 78.9912 95.2358 78.9912C92.9246 78.9912 91.2002 77.3956 91.2002 75.0336C91.2002 72.5824 92.7558 70.8264 95.2358 70.8264C97.1469 70.8264 98.8535 71.8425 99.0313 73.8748H96.5869V73.8837Z" fill="#878787"/>
<path d="M106.996 76.2368C106.996 76.62 107.156 76.9053 107.413 77.1014C107.653 77.2796 107.991 77.3688 108.347 77.3688C108.836 77.3688 109.538 77.1638 109.538 76.5487C109.538 75.9515 108.747 75.8357 108.302 75.7287C106.72 75.3276 104.729 75.283 104.729 73.1973C104.729 71.3433 106.729 70.8352 108.24 70.8352C109.929 70.8352 111.698 71.3254 111.787 73.331H109.458C109.458 73.0012 109.342 72.7962 109.129 72.6625C108.924 72.5288 108.64 72.4664 108.329 72.4664C107.911 72.4664 107.244 72.5109 107.244 73.0457C107.244 73.7766 108.933 73.9103 110.089 74.1599C111.644 74.4719 112.044 75.6039 112.044 76.2368C112.044 78.3047 110.089 78.991 108.356 78.991C106.533 78.991 104.667 78.3849 104.587 76.2278H106.996V76.2368Z" fill="#878787"/>
<path d="M120.933 78.7773H118.489V77.7166H118.462C117.991 78.5099 117.013 79.0001 116.116 79.0001C113.902 79.0001 113.271 77.7166 113.271 75.7021V71.0582H115.796V75.5328C115.796 76.5578 116.24 76.9144 117.04 76.9144C117.591 76.9144 118.418 76.5578 118.418 75.1852V71.0493H120.942V78.7773H120.933Z" fill="#878787"/>
<path d="M122.631 71.058H125.076V72.1187H125.102C125.565 71.3344 126.596 70.8352 127.52 70.8352C130.089 70.8352 130.293 72.707 130.293 73.8212V78.7771H127.769V75.0424C127.769 73.9906 127.885 72.921 126.507 72.921C125.556 72.921 125.147 73.7232 125.147 74.5699V78.7771H122.622V71.058H122.631Z" fill="#878787"/>
<path d="M136.613 72.6983H135.058V76.2102C135.058 76.8163 135.413 76.95 135.964 76.95C136.169 76.95 136.391 76.9233 136.613 76.9233V78.7862C136.151 78.804 135.689 78.8575 135.236 78.8575C133.084 78.8575 132.533 78.2336 132.533 76.1389V72.7072H131.262V71.0671H132.533V68.7229H135.058V71.0582H136.613V72.6983Z" fill="#878787"/>
<path d="M142.96 72.6981H141.742V71.058H142.96C142.96 68.8386 143.733 68.1611 145.884 68.1611C146.284 68.1611 146.702 68.1879 147.102 68.2057V69.9884C146.862 69.9616 146.64 69.9438 146.418 69.9438C145.84 69.9438 145.484 70.0151 145.484 70.7193V71.058H146.995V72.6981H145.484V78.777H142.96V72.6981Z" fill="#878787"/>
<path d="M155.556 78.7773H153.111V77.7166H153.085C152.614 78.5099 151.636 79.0001 150.738 79.0001C148.525 79.0001 147.894 77.7166 147.894 75.7021V71.0582H150.418V75.5328C150.418 76.5578 150.862 76.9144 151.662 76.9144C152.214 76.9144 153.04 76.5578 153.04 75.1852V71.0493H155.556V78.7773Z" fill="#878787"/>
<path d="M161.885 72.6983H160.329V76.2102C160.329 76.8163 160.685 76.95 161.236 76.95C161.44 76.95 161.662 76.9233 161.885 76.9233V78.7862C161.422 78.804 160.96 78.8575 160.507 78.8575C158.356 78.8575 157.805 78.2336 157.805 76.1389V72.7072H156.533V71.0671H157.805V68.7229H160.329V71.0582H161.885V72.6983Z" fill="#878787"/>
<path d="M170.667 78.7773H168.222V77.7166H168.196C167.725 78.5099 166.747 79.0001 165.849 79.0001C163.636 79.0001 163.005 77.7166 163.005 75.7021V71.0582H165.529V75.5328C165.529 76.5578 165.974 76.9144 166.774 76.9144C167.325 76.9144 168.151 76.5578 168.151 75.1852V71.0493H170.667V78.7773Z" fill="#878787"/>
<path d="M172.444 71.0581H174.889V72.413H174.915C175.289 71.4325 176.142 70.9155 177.227 70.9155C177.422 70.9155 177.627 70.9334 177.822 70.9779V73.2865C177.493 73.1974 177.2 73.135 176.862 73.135C175.618 73.135 174.96 73.9996 174.96 74.9622V78.7861H172.444V71.0581Z" fill="#878787"/>
<path d="M181.831 77.4401C183.031 77.4401 183.431 76.7537 183.378 75.1671C183.022 75.39 182.373 75.4345 181.822 75.5861C181.262 75.7198 180.782 75.9604 180.782 76.5666C180.782 77.1816 181.271 77.4401 181.831 77.4401ZM178.569 73.4379C178.613 72.4307 179.084 71.7711 179.769 71.37C180.453 70.9867 181.342 70.8352 182.213 70.8352C184.036 70.8352 185.804 71.2363 185.804 73.4201V76.7983C185.804 77.4579 185.804 78.1621 186.098 78.7771H183.564C183.476 78.5364 183.449 78.3047 183.413 78.0462C182.764 78.7325 181.796 78.9999 180.88 78.9999C179.413 78.9999 178.258 78.2601 178.258 76.6646C178.258 74.151 180.987 74.3471 182.738 73.9906C183.164 73.9014 183.404 73.7499 183.404 73.2775C183.404 72.6981 182.711 72.4753 182.187 72.4753C181.493 72.4753 181.049 72.7872 180.924 73.4379H178.569Z" fill="#878787"/>
<path d="M172.222 61.6634H185.965V57.8573H176.64V54.6217H184.951V51.199H176.64V48.2219H185.733V44.6743H172.231V61.6634H172.222ZM154.596 61.6634H158.747V51.0742H158.791L164.676 61.6634H169.209V44.6743H165.058V55.1476H165.013L159.129 44.6743H154.596V61.6634ZM147.165 61.6634H151.582V44.6743H147.165V61.6634ZM133.565 48.4804H135.653C138.667 48.4804 140.329 49.9778 140.329 53.0708C140.329 56.4757 139.005 57.786 135.653 57.8573H133.565V48.4804ZM129.156 61.6634H136.445C141.591 61.6634 144.747 58.6685 144.747 53.0975C144.747 47.8386 141.636 44.6743 136.445 44.6743H129.156V61.6634ZM126.213 44.6743H121.796V54.907C121.796 57.0997 120.987 58.2139 118.827 58.2139C116.667 58.2139 115.858 57.0997 115.858 54.907V44.6743H111.44V54.6396C111.44 59.5687 113.698 62.0199 118.818 62.0199C123.938 62.0199 126.196 59.5687 126.196 54.6396V44.6743H126.213ZM95.8668 61.6634H100.285V44.6743H95.8668V61.6634ZM82.2757 48.4804H84.3646C87.3779 48.4804 89.0401 49.9778 89.0401 53.0708C89.0401 56.4757 87.7157 57.786 84.3646 57.8573H82.2757V48.4804ZM77.8579 61.6634H85.1468C90.2935 61.6634 93.4579 58.6685 93.4579 53.0975C93.4579 47.8386 90.3468 44.6743 85.1468 44.6743H77.8579V61.6634Z" fill="black"/>
<path d="M227.591 41.6258H232V24.6367H227.582V41.6258H227.591ZM213.991 28.4427H216.08C219.093 28.4427 220.756 29.9402 220.756 33.0332C220.756 36.4381 219.431 37.7484 216.08 37.8197H213.991V28.4427ZM209.582 41.6258H216.871C222.018 41.6258 225.182 38.6308 225.182 33.0599C225.182 27.801 222.071 24.6367 216.871 24.6367H209.582V41.6258ZM206.64 24.6367H202.222V34.8693C202.222 37.0621 201.413 38.1762 199.253 38.1762C197.093 38.1762 196.285 37.0531 196.285 34.8693V24.6367H191.867V34.6109C191.867 39.54 194.125 41.9912 199.245 41.9912C204.373 41.9912 206.622 39.54 206.622 34.6109V24.6367H206.64ZM190.045 24.6367H175.52V28.4427H180.578V41.6258H184.996V28.4427H190.053V24.6367H190.045ZM159.813 35.9122C159.84 40.2709 163.28 41.9823 167.173 41.9823C170.898 41.9823 174.551 40.6007 174.551 36.2955C174.551 33.2293 172.08 32.0794 169.636 31.3931C167.165 30.7068 164.72 30.4661 164.72 29.1558C164.72 28.0327 165.911 27.7029 166.853 27.7029C168.205 27.7029 169.653 28.2021 169.582 29.753H174C173.973 25.9202 170.587 24.2802 167.209 24.2802C164.027 24.2802 160.302 25.733 160.302 29.441C160.302 32.5608 162.845 33.6482 165.262 34.3435C167.707 35.0387 170.125 35.3239 170.125 36.8214C170.125 38.0871 168.747 38.5595 167.422 38.5595C165.547 38.5595 164.311 37.9177 164.222 35.9211H159.813V35.9122ZM145.093 41.6258H149.511V24.6367H145.093V41.6258ZM130.587 41.6258H142.907V37.8197H135.005V24.6367H130.587V41.6258ZM127.769 32.3201H120.649V35.6002H123.733C123.493 37.1512 122.027 38.1673 119.84 38.1673C116.996 38.1673 115.902 35.6448 115.902 33.1223C115.902 30.5998 116.996 28.0773 119.84 28.0773C121.618 28.0773 123.04 28.9597 123.182 30.4126H127.6C127.2 26.152 123.449 24.2712 119.938 24.2712C114.809 24.2712 111.493 28.1932 111.493 33.1223C111.493 38.0515 114.818 41.9734 119.938 41.9734C121.502 41.9734 123.493 41.4029 124.658 39.7628L124.916 41.6168H127.76V32.3201H127.769ZM95.8668 41.6258H109.609V37.8197H100.285V34.5841H108.587V31.1613H100.285V28.1843H109.378V24.6367H95.8757V41.6258H95.8668ZM82.2757 28.4427H84.3646C87.3779 28.4427 89.0401 29.9402 89.0401 33.0332C89.0401 36.4381 87.7157 37.7484 84.3646 37.8197H82.2757V28.4427ZM77.8579 41.6258H85.1468C90.2935 41.6258 93.4579 38.6308 93.4579 33.0599C93.4579 27.801 90.3468 24.6367 85.1468 24.6367H77.8579V41.6258Z" fill="black"/>
<path d="M205.031 21.5884H209.565L210.631 18.54H216.542L217.591 21.5884H222.196L215.858 4.59935H211.369L205.031 21.5884ZM213.573 9.30565H213.618L215.493 15.2598H211.645L213.573 9.30565ZM213.529 0H209.253L212.978 3.54756H215.822L213.529 0ZM206.009 4.59043H191.485V8.39648H196.542V21.5795H200.96V8.40539H206.018V4.59043H206.009ZM185.102 21.5884H189.52V4.59043H185.102V21.5884ZM168.302 15.8749C168.329 20.2336 171.769 21.9449 175.662 21.9449C179.387 21.9449 183.04 20.5634 183.04 16.2582C183.04 13.1919 180.569 12.0421 178.125 11.3558C175.653 10.6694 173.209 10.4288 173.209 9.11847C173.209 7.99537 174.391 7.66558 175.342 7.66558C176.693 7.66558 178.142 8.16473 178.071 9.71567H182.48C182.453 5.88288 179.067 4.24281 175.698 4.24281C172.516 4.24281 168.791 5.6957 168.791 9.4037C168.791 12.5234 171.333 13.6198 173.751 14.3061C176.196 14.9924 178.613 15.2777 178.613 16.784C178.613 18.0408 177.236 18.5222 175.911 18.5222C174.036 18.5222 172.8 17.8804 172.711 15.8838H168.302V15.8749ZM156.551 8.13799H160.062C161.298 8.13799 162.293 8.70845 162.293 9.97416C162.293 11.2577 161.582 11.9708 160.249 11.9708H156.551V8.13799ZM152.133 21.5884H156.551V15.4025H159.893C161.956 15.4025 162.24 17.1584 162.365 18.8787C162.409 19.3511 162.48 21.0179 162.862 21.5884H167.227C166.631 20.9734 166.56 18.4687 166.516 17.7556C166.373 16.1334 165.849 14.1189 164.045 13.6911V13.6376C165.822 12.9513 166.702 11.2131 166.702 9.37696C166.702 5.95419 163.76 4.59043 160.765 4.59043H152.125V21.5884H152.133ZM135.885 21.5884H149.627V17.7824H140.302V14.5468H148.605V11.1151H140.302V8.13799H149.396V4.59043H135.893V21.5884H135.885ZM134.622 4.59043H130.018L126.693 17.2297H126.649L123.325 4.59043H118.72L124.062 21.5795H129.138L134.622 4.59043ZM113.031 21.5884H117.449V4.59043H113.031V21.5884ZM95.3956 21.5884H99.5467V10.9992H99.5912L105.476 21.5884H110.009V4.59043H105.858V15.0637H105.813L99.929 4.59043H95.3956V21.5884ZM92.4978 4.59043H88.089V14.8231C88.089 17.0158 87.2801 18.13 85.1201 18.13C82.9601 18.13 82.1512 17.0158 82.1512 14.8231V4.59043H77.7334V14.5646C77.7334 19.4937 79.9912 21.9449 85.1112 21.9449C90.2312 21.9449 92.489 19.4937 92.489 14.5646V4.59043H92.4978Z" fill="black"/>
</g>
<defs>
<clipPath id="clip0">
<rect width="232" height="79" fill="white"/>
</clipPath>
</defs>
</svg>
